<svg xmlns="http://www.w3.org/2000/svg" viewBox="0 100.87 1024 822.26">
  <path fill="#ffd2bb" d="m711.294 641.526 5.238 7.266-27.683 14.604-2.867-8.521-1.819-5.435a16.18 16.18 0 0 0 2.455-1.047l6.441-3.425c.466-.248.355-1.203.007-2.445-.324.204-.66.402-1.006.579l-6.428 3.422c-.858.457-1.675.778-2.465 1.037-5.102 1.675-8.84-.558-12.069-4.687-.893-1.132-1.748-2.411-2.58-3.794-.737-1.207-1.449-2.502-2.17-3.848l-5.359-10.096a18.969 18.969 0 0 1-1.098-2.542c2.032-.274 4.493-1.102 7.544-2.773 5.175-2.834 8.601-6.397 10.874-9.641.751 1.051 1.688 1.9 2.893 2.328 5.691 2.016 7.211 4.669 8.065 6.28.858 1.613 2.536 3.713 2.536 3.713s-2.371-9.048.158-8.954c4.147.146 10.077 11.923 10.187 12.145l.003.021c.019.5.007.996-.021 1.491-.021.477-.095.949-.152 1.423l9.315 12.9zm-90.689 33.49c1.38.384 2.716.767 4.004 1.152a210.58 210.58 0 0 0-2.844-.823c-.379-.114-.77-.223-1.16-.328zm14.166 4.464c-.342-.125-.704-.26-1.091-.397-.121-.044-.266-.091-.39-.135a82.66 82.66 0 0 1 1.681.605c-.056-.021-.124-.047-.2-.073zm-7.155-2.395c.426.132.856.266 1.265.4.814.254 1.58.504 2.316.751a200.722 200.722 0 0 0-6.324-1.989c.942.277 1.863.558 2.744.839zm-32.106-7.533c.568.074 1.135.152 1.718.24-.219-.034-.441-.07-.656-.095-.365-.054-.71-.098-1.065-.143zm8.893 1.517.068.014a120.876 120.876 0 0 0-1.489-.293c.479.095.947.179 1.423.277zm-17.219-2.136a2.77 2.77 0 0 0-.056-.248 7.058 7.058 0 0 0-.324-.904c-1.613-3.921-7.516-11.676-9.756-10.07-1.926 1.367 4.237 4.68 1.849 6.127-2.64 1.593-13.55-6.882-14.541-4.089-1.135 3.166 9.856 4.936 8.565 7.229a.715.715 0 0 1-.314.26c-.01.01-.019.034-.032.044-2.313.923-12.271-6.719-13.281-3.557-1.083 3.353 11.876 4.931 10.876 7.364-.993 2.437-10.54-4.73-11.614-1.7-1.19 3.375 12.863 4.906 12.123 6.412-1.248 2.512-9.049-3.165-10.137-.581-.649 1.532 3.994 3.429 9.33 4.739 4.71 1.157 9.785 1.646 12.626.521.495-.197.94-.406 1.353-.619a23.826 23.826 0 0 0 2.104 2.034 21.096 21.096 0 0 0 3.709-12.904 43.46 43.46 0 0 0-2.476-.056zm20.342 2.796c.124.034.256.051.382.092.765.168 1.528.344 2.286.518-.937-.222-1.875-.439-2.813-.646.048.012.095.028.143.034zm4.995 1.171c.085.021.168.04.254.056-.672-.163-1.339-.327-2.014-.484l1.761.428zm25.136 7.738c-.037-.019-.101-.044-.142-.061.044.017.102.041.142.061zm41.917-140.948c-1.97 2.665 10.038 6.32 10.615 8.735.007.017-.007.032-.003.056a.707.707 0 0 1-.034.402c-1.113 2.383-8.944-5.522-10.863-2.76-1.69 2.43 11.548 6.371 11.788 9.457.212 2.772-6.073-.314-6.069 2.049.003 2.76 9.745 3.049 13.877 2.079a6.79 6.79 0 0 0 .916-.263c.085-.037.158-.063.24-.095l7.595 6.689a101.576 101.576 0 0 0 5.778-14.006c.321.068.667.156.996.23-2.665-.997-5.187-1.728-7.419-1.985a18.787 18.787 0 0 0-.288-1.458c-.74-2.969-4.092-6.812-7.77-9.972-4.169-3.575-8.419-6.241-9.282-4.829-1.469 2.386 7.689 5.434 6.366 7.91-.791 1.476-10.215-9.072-12.262-6.131-1.843 2.625 9.542 6.234 8.133 8.458-1.389 2.221-10.206-7.394-12.316-4.566zM696.318 104c.203-.146.426-.273.638-.406a18.638 18.638 0 0 1-.004 0c-.214.135-.43.26-.643.406-.07.047-.132.112-.203.158.073-.051.149-.101.222-.149l-.01-.01zm-8.433 18.311c0-.012.003-.021 0-.034-.602-4.834.619-9.889 3.841-14.042 0 0-.003 0-.003.003-3.223 4.15-4.447 9.21-3.845 14.039l.007.034zm38.467 22.001 4.46-5.762c.241-.307.463-.621.676-.942.825.993 1.32 1.821.997 2.239l-4.469 5.762a15.702 15.702 0 0 1-1.806 1.961l3.892 4.213 6.107 6.592 1.292-1.66s.003 0 .003.003l.168-.216 5.492-7.053 12.291-15.75-21.539-12.413c-.142-.457-.27-.919-.449-1.367-.179-.46-.372-.919-.592-1.364-.003-.007-.007-.012-.01-.021-.172-.139-10.432-8.473-14.276-6.897-2.348.958 3.53 8.233 3.53 8.233s-2.397-1.228-3.838-2.346c-1.44-1.123-3.911-2.915-9.933-2.421-2.09.169-4-.947-5.609-2.468.85 3.555.649 8.71-3.943 14.783-1.932 2.563-4.086 4.157-6.231 5.114a18.783 18.783 0 0 0 2.535 2.383l9.03 7.01c1.214.93 2.386 1.816 3.56 2.62 1.328.916 2.627 1.728 3.906 2.389 4.642 2.445 8.966 2.954 12.931-.672a14.782 14.782 0 0 0 1.823-1.951zm-69.974 57.193c.143-.037.288-.079.433-.117-.165.044-.336.085-.5.132.019-.004.04-.007.065-.014zm7.371-1.783a.88.88 0 0 0 .143-.04l-1.323.295c.079-.019.156-.037.24-.051.304-.07.631-.136.94-.204zm6.759-1.358c-.605.109-1.207.223-1.809.344l1.802-.344h.007zm-4.851.949c-.088.019-.172.034-.258.051l.065-.014c.063-.007.13-.021.193-.037zm2.829-.571c-.944.186-1.887.375-2.827.57.063-.014.13-.03.196-.04.876-.183 1.755-.361 2.633-.53zm-22.717 6.41c-.051-.068-.098-.136-.153-.204a7.29 7.29 0 0 0-.665-.689c-3.081-2.913-11.646-7.561-13.035-5.183-1.193 2.042 5.786 2.532 4.206 4.829-1.751 2.536-15.181-.714-14.939 2.242.266 3.355 11.014.457 10.774 3.076a.692.692 0 0 1-.178.368c-.004.017-.003.037-.012.051-1.728 1.79-13.947-1.088-13.572 2.207.393 3.502 12.858-.377 12.941 2.248.095 2.633-11.551.019-11.288 3.217.3 3.57 13.744-.806 13.684.875-.105 2.798-9.546.828-9.483 3.632.04 1.657 5.048 1.481 10.451.49 4.768-.879 9.597-2.518 11.726-4.71.368-.382.692-.755.981-1.119.845.368 1.768.697 2.753.988.831-4.504.153-9.2-1.916-13.292a45.33 45.33 0 0 0-2.276.977zm4.255-1.705c-.635.216-1.225.444-1.806.665a59.246 59.246 0 0 1 2.023-.743c-.07.03-.146.054-.216.079zm2.618-.863c.935-.291 1.916-.57 2.913-.85a26.01 26.01 0 0 0-.913.254c-.686.2-1.346.4-1.999.597zm3.053-.886c.109-.034.223-.065.336-.101l-.474.139c.044-.014.091-.028.139-.04zm6.454-1.623c-1.579.355-3.122.733-4.622 1.123 1.006-.256 2.016-.51 3.05-.755.114-.03.241-.051.361-.083l1.211-.285zm34.446-4.967zm-10.574.872-.101.014.063-.01c.012 0 .023-.003.037-.004zm-6.088.82c-.435.065-.883.132-1.33.197-.01 0-.019.004-.03.004.577-.088 1.139-.168 1.704-.254-.118.019-.23.034-.346.051zm12.4-1.476c.406-.04.794-.063 1.16-.085.074-.01.149-.019.209-.014.196-.017.375-.03.558-.044-2.087.124-4.95.4-8.24.799.43-.051.867-.101 1.284-.143a147 147 0 0 1 5.031-.511zm54.047 13.158-7.269 7.024-.247-.085a8.094 8.094 0 0 0-.927-.219c-4.173-.774-13.888-.04-13.762 2.713.102 2.367 6.238-1.006 6.154 1.776-.101 3.093-13.146 7.638-11.341 9.987 2.042 2.674 9.505-5.584 10.726-3.258a.69.69 0 0 1 .051.405c-.003.019.012.037.007.056-.467 2.434-12.295 6.641-10.202 9.213 2.239 2.725 10.604-7.284 12.095-5.131 1.51 2.16-9.695 6.282-7.737 8.823 2.181 2.84 11.111-8.124 11.97-6.688 1.431 2.415-7.573 5.873-5.996 8.193.926 1.369 5.045-1.492 9.048-5.255 3.53-3.327 6.699-7.32 7.301-10.311.102-.526.168-1.011.222-1.471 2.225-.361 4.721-1.211 7.35-2.337-.336.092-.686.2-1.015.285a101.856 101.856 0 0 0-6.427-13.718zM133.581 485.785s-3.103-9.965-3.304-9.989l-6.445 2.789c-.467.203-1.123-.457-1.85-1.467.349-.124.697-.256 1.04-.412l6.455-2.776a15.007 15.007 0 0 0 2.262-1.24c4.337-2.824 4.906-6.98 3.746-11.909-.317-1.353-.761-2.764-1.301-4.217a69.53 69.53 0 0 0-1.59-3.955l-4.369-10.126c-.453-1.048-1-2.021-1.613-2.937-.389.486-.831.962-1.316 1.42-1.274 1.211-2.888 2.309-4.956 3.173-6.777 2.823-11.642 1.77-14.76.121 1.032 1.87 1.62 3.921.955 5.832-1.911 5.505-.825 8.237-.13 9.863.7 1.613 1.269 4.146 1.269 4.146s-5.377-7.23-6.843-5.279c-2.394 3.22 2.932 14.811 3.016 14.992.003.003.004.007.01.01.365.317.751.609 1.132.889.891.649 1.85 1.181 2.84 1.657.152.073.298.152.451.216l8.778 13.827 33.551 19.409-17.019-24.039zm-15.436-53.071c.01.004.021.003.032.007-.007-.004-.017-.01-.023-.012a18.282 18.282 0 0 0-12.335-.423 18.268 18.268 0 0 1 12.328.428zm-19.088 3.467c-.101.085-.193.178-.288.27.095-.091.186-.179.284-.26l.023.04c.423-.384.872-.744 1.335-1.091-.456.344-.937.663-1.353 1.042zm95.658-59.474c-2.671-.413-1.945 8.867-4.639 8.619-1.613-.153 4.226-12.467.85-13.192-3.023-.653-1.962 10.817-4.464 10.4-2.502-.406 2.746-11.842-.558-12.659-3.104-.761-1.859 11.277-3.782 12.707-.017.01-.04 0-.054.014a.71.71 0 0 1-.375.118c-2.532-.085 1.565-10.016-1.609-10.686-2.798-.597-1.345 12.646-3.991 14.013-2.383 1.225-1.995-5.508-4.099-4.617-2.445 1.042.942 9.793 3.348 13.106.203.273.397.526.584.721.058.061.112.112.172.172-.125.2.514 2.695 1.086 4.994.153-.317.307-.631.46-.926 2.459.842 5.073 1.24 7.724 1.207.065.321.13.66.19.996 1.079-2.087 2.185-4.152 2.383-4.301 2.36-1.768 4.518-6.181 5.949-10.637 1.616-5.044 2.399-9.812.821-10.056zM69.813 417.96c-2.079-.935-1.832 5.81-4.191 4.531-2.62-1.425-.891-14.627-3.702-14.09-3.189.605.701 10.61-1.832 10.647a.618.618 0 0 1-.369-.13c-.014-.01-.037 0-.054-.017-1.893-1.463-.402-13.471-3.519-12.772-3.324.74 1.688 12.288-.818 12.637-2.513.361-1.215-11.073-4.252-10.483-3.391.649 2.192 13.086.581 13.199-2.702.19-1.788-9.065-4.467-8.71-1.583.207-.898 4.997.613 10.073 1.342 4.487 3.407 8.94 5.731 10.749.142.109.727 1.211 1.425 2.59 2.817.226 5.704.014 8.554-.765.061-.017.112-.041.172-.056.207.344.422.73.638 1.142.595-2.185 1.215-4.442 1.098-4.635.061-.058.112-.112.175-.178.187-.183.39-.426.599-.701 2.472-3.26 6.036-11.95 3.614-13.035z"/>
  <path fill="#38bdf8" d="M203.957 579.452c.402 1.228 3.382 20.196-3.723 16.299v-.377l-.66-.012c-.511-.353-1.083-.849-1.69-1.423-3.081-2.915-7.422-8.822-13.543-19.331-.2-1.086-.441-2.163-.663-3.242-6.234 2.44-13.516 5.245-20.187 7.82-.098.04-.193.073-.291.112.041.212.083.423.121.635a327.21 327.21 0 0 1 1.389 8.087c-4.162 2.841-3.808 11.631-5.536 19.606a38.515 38.515 0 0 1-.449 1.839c-2.386 8.907-8.185 16.041-27.166 11.377-.456-.112-.882-.197-1.352-.324-4.755-1.269-8.277-2.862-10.828-4.72-17.22-12.551 10.516-37.412 12.123-59.236.419-5.698-.937-11.19-5.348-16.197.014-.132-5.403-4.513-11.974-9.8l-4.892-3.933-4.939-3.972a11.494 11.494 0 0 1-4.27-1.748c-2.469-1.653-24.506-10.868-33.09-18.847-.092-.085-.163-.169-.256-.256-1.183-1.127-2.164-2.239-2.962-3.322-1.39-1.89-2.235-3.702-2.706-5.399-.568-.949-1.015-1.989-1.237-3.141-.477-2.474-6.205-42.542-6.533-52.485a31.962 31.962 0 0 1-.014-1.431c.555.081 1.116.117 1.675.158 2.817.226 5.704.014 8.554-.765.061-.017.112-.041.172-.056.207.344.422.73.638 1.142 3.903 7.447 8.884 25.675 11.946 37.995 1.163 4.671 2.046 8.487 2.488 10.542 3.706 1.463 7.717 3.227 11.656 5.063 6.898 3.216 13.556 6.641 17.926 9.039l7.707-9.309.997.575 33.551 19.409-17.117-24.393 8.133-6.154c.4-.767.867-1.511 1.454-2.199.521-.606 1.772-2.589 3.476-5.278 4.176-6.592 11.146-17.532 17.271-23.649-.143-1.021-.203-2.065-.054-3.137.656-4.829 7.452-32.357 13.423-44.597.153-.317.307-.631.46-.926 2.459.842 5.073 1.24 7.724 1.207.065.321.13.66.19.996 2.452 13.451 1.653 41.607 1 46.412-.244 1.783-.916 3.391-1.85 4.795-5.392 12.716-21.041 35.504-24.165 39.144-.037.044-.083.07-.118.112.457.588.898 1.018 1.318 1.193 11.799 4.971 15.176 11.872 14.495 20.257-.369 4.504-.273 11.202.806 16.552.135.667.28 1.313.433 1.938 3.524 14.374 12.018 18.208 19.877 32.065l1.232 1.101c-.135.068-.309.153-.497.241 2.042 3.792 4.03 8.309 5.864 13.939zm431.805-65.438-43.884-6.378-.94-1.907-18.683-37.856-19.626 39.763-43.881 6.378 31.754 30.947-7.496 43.707 39.252-20.633 39.249 20.633-7.496-43.704 31.751-30.949zM399.35 374.876v-22.818a3.56 3.56 0 0 1 7.12 0v22.818a3.56 3.56 0 1 1-7.12 0zm0 82.722a3.56 3.56 0 1 0 7.12 0v-22.821a3.56 3.56 0 1 0-7.12 0v22.821zm-52.773-52.77a3.563 3.563 0 0 0 3.563 3.563h22.821a3.56 3.56 0 0 0 0-7.123H350.14a3.563 3.563 0 0 0-3.563 3.56zm82.725 0a3.56 3.56 0 0 0 3.56 3.563h22.821a3.562 3.562 0 1 0 0-7.123h-22.821a3.56 3.56 0 0 0-3.56 3.56zm-45.048-23.699-16.14-16.136a3.557 3.557 0 0 0-5.036 0 3.56 3.56 0 0 0 0 5.034l16.139 16.14a3.556 3.556 0 0 0 5.036 0 3.562 3.562 0 0 0 .003-5.038zm37.314 47.393 16.14 16.14c.693.693 1.606 1.042 2.518 1.042s1.823-.349 2.518-1.042a3.56 3.56 0 0 0 0-5.038l-16.133-16.139a3.57 3.57 0 0 0-5.041 0 3.56 3.56 0 0 0-.003 5.036zm-42.354-5.036-16.139 16.139a3.561 3.561 0 1 0 5.036 5.038l16.14-16.14a3.557 3.557 0 0 0 0-5.036 3.566 3.566 0 0 0-5.038 0zm58.496-58.494-16.14 16.136a3.565 3.565 0 0 0 2.52 6.082 3.56 3.56 0 0 0 2.52-1.044l16.133-16.14a3.554 3.554 0 0 0 0-5.034 3.554 3.554 0 0 0-5.034 0zm338.119 322.892s-10.053-25.083-17.076-40.328l6.205-61.22-.672-.219c1.695-6.631-1.109-13.911-7.357-17.69-5.201-3.154-27.466-12.761-42.517-16.168-.328-.073-.674-.161-.996-.23a102.179 102.179 0 0 1-5.778 14.006c-.081.158-.153.324-.234.479 8.012 9.33 19.903 19.626 26.469 24.474l-8.072 52.916.507-.266-41.882 22.093-46.764 14.902a2.635 2.635 0 0 0-.142-.061 26.823 26.823 0 0 0-1.174-.497c-.073-.032-.146-.058-.219-.091-.125-.051-.234-.098-.368-.152-.247-.085-.501-.183-.772-.28a2.653 2.653 0 0 0-.212-.077c-.342-.125-.704-.26-1.091-.397a136.255 136.255 0 0 0-4.8-1.597c-.406-.135-.835-.267-1.265-.4a164.95 164.95 0 0 0-2.744-.842c-.088-.028-.178-.051-.263-.074a210.58 210.58 0 0 0-2.844-.823 38.846 38.846 0 0 0-1.16-.328c-.047-.014-.091-.03-.136-.041l-.04-.01a322.016 322.016 0 0 0-6.254-1.657c-.244-.061-.47-.13-.711-.19-.237-.048-.46-.105-.692-.161a17.452 17.452 0 0 0-.254-.056l-1.916-.467c-.136-.034-.273-.061-.409-.092-.761-.175-1.522-.351-2.286-.518-.125-.041-.258-.058-.382-.092-.048-.01-.095-.023-.143-.034a26.011 26.011 0 0 1-1.164-.26c-.139-.023-.266-.041-.412-.07-.307-.065-.632-.139-.944-.2-.132-.037-.258-.054-.39-.081l-.068-.014c-.474-.098-.942-.183-1.42-.277-.012-.003-.028-.007-.04-.007-.109-.019-.216-.044-.321-.065-.263-.051-.518-.092-.778-.143-.74-.139-1.478-.273-2.209-.4-.13-.021-.258-.048-.384-.068a21.275 21.275 0 0 1-.893-.146c-.054-.01-.091-.021-.132-.028-.196-.03-.389-.051-.575-.083-.139-.023-.28-.04-.422-.061-.219-.034-.441-.07-.656-.095-.362-.051-.71-.095-1.065-.143-.456-.061-.919-.132-1.356-.183-.142-.017-.28-.021-.406-.044-.074-.012-.146-.017-.222-.023-.19-.023-.372-.044-.555-.061-.124-.012-.254-.028-.372-.041-.288-.021-.561-.051-.835-.07-.355-.034-.679-.048-1.015-.07-.307-.019-.623-.048-.923-.061-.051-.004-.107-.01-.161-.012v.007a21.097 21.097 0 0 1-3.709 12.904l-.056.091.762.743c.258.248.517.5.794.744.362.344.751.693 1.127 1.044.466.409.935.832 1.423 1.248.073.061.136.132.207.179l.689.597c.223.196.451.372.676.57.081.056.156.136.254.214.304.254.621.524.937.781.139.102.266.207.405.328.298.248.606.49.919.736.2.178.406.349.623.501.204.165.426.339.639.514.121.092.226.183.346.27.254.203.53.402.798.612.065.051.143.109.203.168l1.518 1.157.124.088c.406.314.816.616 1.232.919 10.082 7.507 20.972 14.287 24.779 16.038.958.449 4.95.816 10.511 1.095 18.196.949 53.087 1.13 53.087 1.13 2.202 3.546 5.733 8.163 9.927 13.277 8.138 21.935 16.971 48.608 21.414 50.734.004-.003.012-.004.017-.004 1.937-.831 10.245.953 13.243-10.479.758-2.888 1.174-6.62 1.065-11.453l43.498-14.222c.444.39.886.784 1.316 1.135.473.389.935.737 1.39 1.066.838.612 1.656 1.163 2.432 1.576 7.994 5.577 13.82 7.206 18.119 6.641 11.459-1.51 11.957-18.737 12.978-19.236-14.601-12.259-32.937-32.079-37.517-42.812z"/>
  <path fill="#334155" d="m761.94 878.197 9.11-6.34 10.735 12.541-27.192 18.949s-6.05 4.432-8.054 1.32c-3.085-4.79 9.812-11.624 12.876-16.281 1.451-2.188 2.525-10.188 2.525-10.188zm58.505 16.046s-.193 8.068-1.386 10.405c-2.53 4.965-14.59 13.177-11.003 17.603 2.33 2.877 7.859-2.204 7.859-2.204l24.93-21.825-12.047-11.285-8.353 7.306zM795.842 763.95s2.604-5.802 4.518-14.013c-4.299.565-10.126-1.065-18.119-6.641-.774-.416-1.593-.964-2.432-1.576a28.963 28.963 0 0 1-1.39-1.066c-.428-.351-.872-.744-1.316-1.135l-43.498 14.222c.112 4.834-.307 8.568-1.065 11.453-2.995 11.428-11.307 9.648-13.243 10.479-3.304 11.65-7.487 26.247-10.57 36.525-5.941 19.75 50.78 67.641 50.78 67.641l11.539-7.983s-11.151-20.742-18.696-36.699c22.307 26.574 65.854 60.994 65.854 60.994l10.588-9.21s-48.387-63.877-51.628-73.389c-1.386-4.077 18.675-49.601 18.675-49.601zm136.891-498.594.413 14.027s-71.045 21.513-84.385 5.774c-8.689-10.245-22.239-33.865-30.641-49.111.298 9.198-6.803 10.8-8.078 12.225-4.544-.112-21.072-17.741-36.502-33.556-6.675 2.864-13.741 5.55-19.721 7.196-.336.092-.686.2-1.015.285a101.632 101.632 0 0 0-6.427-13.715c-.088-.153-.158-.321-.248-.474 2.79-3.57 6.106-7.298 9.493-10.841-2.462-2.192-4.657-3.982-6.473-5.204 0 0-25.853 24.958-42.831 31.558-5.184 2.025-8.979 3.331-10.035 3.309-4.191-.034-16.903-1.744-29.179-4.45-.504-.107-1-.216-1.498-.336l-.153-.03c-.613-.146-1.237-.291-1.853-.435-.074-.028-.172-.047-.254-.063-.331-.083-.663-.153-.98-.24-.143-.03-.277-.07-.423-.101-.27-.07-.541-.139-.799-.207a7.615 7.615 0 0 1-.772-.2c-.384-.098-.767-.193-1.139-.292a6.307 6.307 0 0 0-.5-.139c-.397-.105-.799-.216-1.179-.321a4.804 4.804 0 0 0-.317-.098c-.291-.081-.572-.153-.853-.241l-.872-.26c-.091-.021-.169-.051-.266-.081-.612-.179-1.215-.372-1.809-.558-.49-.156-.988-.324-1.456-.484-.355-.107-.693-.234-1.031-.353l-1-.361c.007-.037.01-.07.014-.109.831-4.504.153-9.2-1.916-13.292 0-.003 0-.003-.003-.004.054-.021.114-.041.168-.061.581-.223 1.171-.451 1.806-.665.068-.028.146-.051.214-.074.19-.065.379-.135.579-.204.121-.041.254-.081.379-.121.223-.074.446-.152.686-.223.01-.003.019-.004.03-.01.121-.04.251-.081.384-.13.109-.034.229-.065.342-.102.653-.197 1.313-.397 1.999-.597.344-.102.7-.2 1.051-.291.109-.034.223-.065.336-.101.073-.021.146-.047.219-.063l.063-.014c.021-.004.04-.007.065-.014.143-.037.288-.079.433-.117.152-.044.3-.081.444-.121.091-.023.183-.047.273-.068 1.006-.256 2.016-.51 3.05-.755.114-.03.241-.051.361-.083l1.211-.285c.065-.017.132-.032.197-.048.074-.014.149-.032.222-.048.079-.019.156-.037.24-.051.304-.073.632-.142.942-.207a.88.88 0 0 0 .143-.04c.088-.021.175-.047.263-.065.413-.07.825-.161 1.244-.254l.065-.014c.13-.019.256-.054.389-.074a211.61 211.61 0 0 1 2.634-.533l.079-.014.135-.023 1.802-.344h.007c.321-.051.628-.114.944-.178.061-.012.118-.019.179-.032a319.59 319.59 0 0 1 6.967-1.157c.449-.065.893-.132 1.33-.197a235.85 235.85 0 0 1 6.052-.816c.444-.051.891-.102 1.32-.149 1.865-.222 3.555-.39 5.029-.514.406-.04.794-.063 1.16-.085.074-.01.149-.019.209-.014.196-.017.375-.03.558-.044.091-.004.19-.014.277-.019l.314-.012a38.954 38.954 0 0 1 1.744-.044h.004l36.546-32.808 4.355-5.584s.003 0 .003.003c.178.101.353.212.53.314 11.326 6.441 22.326 15.13 33.312 24.792l-8.458-42.251c-3.747-2.659-6.339-4.471-7.379-5.078-.241-.142-.419-.23-.486-.237l.439-.561 16.418-21.041c2.023-2.798 5.504-5.942 9.935-5.206.044-.017.081-.021.121-.03.339-.07.697-.061 1.04-.01 2.776-.777 42.599 37.59 42.599 37.59 8.582 7.907 33.439 18.455 51.779 23.642-.682.821 5.078 14.831-2.25 21.6 10.983 9.593 31.235 26.902 34.347 26.855 10.045-.149 85.745-26.439 85.745-26.439l5.489 12.919s-87.283 58.197-105.432 48.391c-10.187-5.501-25.051-13.274-36.137-19.036 6.333 11.709 13.445 24.112 15.544 24.901 9.421 3.527 58.076 7.533 58.076 7.533zM799.68 165.054l3.037 20.505-.66.248c1.995 6.546-.467 13.941-6.536 18.008-.04.028-.102.061-.143.091 5.689 5.308 11.431 10.625 17.273 15.781l26.838-31.416c-11.482-5.213-26.023-14.115-39.81-23.216zM154.045 386.241H55.116V264.826h98.929v25.557c17.281-8.136 42.04-8.277 66.2-8.382 11.656-.051 23.018-.117 32.942-1.135.2.802.426 1.59.689 2.367-10.165 1.082-21.746 1.152-33.621 1.203-24.393.105-49.405.251-66.21 8.655v93.15zm-14.523-19.112c0-.672-.546-1.218-1.218-1.218H73.1a1.219 1.219 0 0 0 0 2.436h65.204c.674 0 1.218-.544 1.218-1.218zm0-15.737c0-.672-.546-1.218-1.218-1.218H73.1a1.219 1.219 0 0 0 0 2.436h65.204c.674 0 1.218-.544 1.218-1.218zm0-15.738c0-.672-.546-1.218-1.218-1.218H73.1a1.219 1.219 0 0 0 0 2.436h65.204c.674 0 1.218-.546 1.218-1.218zm0-15.743c0-.672-.546-1.218-1.218-1.218H73.1a1.219 1.219 0 0 0 0 2.436h65.204c.674 0 1.218-.546 1.218-1.218zm0-15.74c0-.672-.546-1.218-1.218-1.218H73.1a1.219 1.219 0 0 0 0 2.436h65.204c.674 0 1.218-.546 1.218-1.218zm0-15.74c0-.672-.546-1.218-1.218-1.218H73.1a1.219 1.219 0 0 0 0 2.436h65.204c.674 0 1.218-.546 1.218-1.218zm192.45 433.793c-40.778-.777-73.007-12.869-95.787-36.041-34.905-35.504-35.937-85.782-35.955-90.432v-.377l-2.242-.041c-.037-.474-.07-.942-.109-1.393-3.081-2.915-7.422-8.822-13.543-19.331-.2-1.086-.441-2.163-.663-3.242-6.234 2.44-13.516 5.245-20.187 7.82-.054.254-.112.495-.165.748a327.21 327.21 0 0 1 1.389 8.087c-4.162 2.841-3.808 11.631-5.536 19.606a38.515 38.515 0 0 1-.449 1.839c-2.386 8.907-8.185 16.041-27.166 11.377a19.472 19.472 0 0 0-1.095 3.334c-3.273 14.096-17.725 54.079-22.323 76.555-5.758-2.634-13.633-3.397-19.093-1.846-6.479 1.841-19.974 6.236-29.438 10.553l-.175 10.388s-.207.186-.486.444c7.437.295 17.803-.518 26.211-.19 13.39.514 26.75-1.732 29.35-6.35 12.094-9.895 35.489-43.703 46.202-65.351 3.79 17.387 9.552 51.789 15.409 73.45-2.341 5.346-3.939 10.784-3.776 14.79.267 6.787-1.215 24.035-1.268 36.58l9.082 2.849c5.854-15.785 12.548-43.14 12.237-50.998-.241-6.01.707-12.021.838-16.289 3.59-30.477 5.82-75.354 5.248-102.175 1.897 17.97 9.049 53.913 35.951 81.292 23.27 23.68 56.116 36.022 97.627 36.79-.048-.692-.105-1.379-.105-2.083 0-.125.017-.244.017-.362zm201.577-136.733c-2.094 2.834-4.72 7.247-8.04 12.836-18.32 30.825-57.111 95.974-136.043 117.136.2.791.362 1.593.495 2.407 79.94-21.329 119.135-87.158 137.642-118.298 3.06-5.146 5.504-9.249 7.43-11.971l-2.028 1.066.546-3.176zM728.13 411.915c-7.947 1.688-16.491 3.232-25.638 4.622-94.218 14.339-109.543 77.726-111.552 89.189l.94 1.907 1.214.121c.073-.733 8.445-73.392 109.765-88.811 9.205-1.4 17.81-2.959 25.823-4.669a28.923 28.923 0 0 1-.551-2.36zM624.339 239.948c1.225.351 123.082 35.511 162.853 81.908 16.231 18.934 21.9 35.43 16.852 49.024-3.09 8.319-10.226 15.731-21.314 22.219a30.24 30.24 0 0 1 1.032 2.155c11.726-6.827 19.277-14.676 22.564-23.528 5.38-14.485-.435-31.798-17.288-51.454-37.376-43.607-145.731-77.207-161.977-82.056a3.35 3.35 0 0 0 1.437-2.286 3.368 3.368 0 0 0-2.851-3.82l-57.071-8.334-2.09-60.324a3.367 3.367 0 0 0-3.487-3.253 3.37 3.37 0 0 0-3.253 3.487l2.1 60.668c.003.112.03.216.044.324-8.74-7.801-99.162-86.128-185.518-70.093-68.466 12.707-77.209 52.624-84.233 84.699a628.239 628.239 0 0 1-1.52 6.792c.781.256 1.553.53 2.304.85.541-2.332 1.066-4.71 1.593-7.121 6.871-31.371 15.422-70.413 82.299-82.828 89.207-16.525 183.169 69.246 184.11 70.113l.825-.893a3.37 3.37 0 0 0 2.849 3.82l60.068 8.769-.331 1.164z"/>
  <path fill="#334155" d="M699.943 617.395a18.995 18.995 0 0 1 2.221 8.321l-.01-.019c-.109-.223-6.04-12.001-10.187-12.145-2.53-.092-.158 8.954-.158 8.954s-1.684-2.1-2.536-3.713c-.853-1.612-2.371-4.264-8.065-6.28-1.204-.428-2.144-1.276-2.893-2.328-2.272 3.243-5.698 6.806-10.874 9.641-3.049 1.671-5.511 2.496-7.544 2.773-5.478.743-7.744-2.658-9.286-5.35-3.541-6.196 3.887-7.747 5.311-12.39 1.437-4.659 4.425-11.511 12.39-7.966 2.214.984 9.048-9.4 14.162-4.427 1.113 1.079 1.037 3.519.726 5.565.226.068.463.102.686.178a18.922 18.922 0 0 1 10.691 9.089l5.366 10.1zm249.149-354.217-16.362 2.18.358 11.091s6.13 5.257 7.179 7.668c2.231 5.099.949 19.635 6.645 19.66 3.699.014 3.276-7.48 3.276-7.48l-1.095-33.119zM718.591 111.639c3.842-1.573 14.102 6.759 14.276 6.897 0 .003.014.014.014.014a18.997 18.997 0 0 0-5.441-6.678l-9.038-7.01a18.996 18.996 0 0 0-21.447-1.272c-.212.135-.435.26-.638.406l.01.012a18.632 18.632 0 0 0-2.341 1.8c-.105.095-.204.2-.307.3a19.1 19.1 0 0 0-1.951 2.127s0 .003-.003.003c-3.223 4.152-4.442 9.205-3.841 14.042 0 .012-.003.021 0 .034.546 4.8-12.271 6.97-8.124 10.184 0 0 6.358 2.915 12.802.041 2.144-.958 4.299-2.553 6.231-5.114 4.591-6.07 4.792-11.226 3.943-14.783 1.609 1.52 3.519 2.637 5.609 2.468 6.019-.495 8.494 1.298 9.933 2.421 1.441 1.119 3.838 2.346 3.838 2.346s-5.876-7.281-3.53-8.237zm304.118 101.503-13.062-30.456-14.452 7.973 4.366 10.202s7.617 2.678 9.471 4.531c3.939 3.939 8.024 17.945 13.343 15.896 3.453-1.323.336-8.149.336-8.149zM185.848 784.816c-1.965-1.6-5.275-8.64-5.275-8.64l-10.21-3.203-6.241 14.655 30.492 9.542s6.854 2.323 7.794-1.113c1.444-5.299-12.395-7.854-16.558-11.241zM43.271 739.229s-.292 7.237 3.273 7.157c5.489-.114 4.024-14.113 6.101-19.061.811-1.941 4.931-5.802 6.31-7.057l.486-.444.175-10.388.004-.309-15.818-1.846-.533 31.948zm85.552-295.34 3.763 8.724a68.366 68.366 0 0 1 1.59 3.955 34.972 34.972 0 0 1 1.301 4.217c1.163 4.927.592 9.082-3.746 11.909-.67.444-1.405.862-2.262 1.24l-6.455 2.776c-.344.153-.692.288-1.04.412.727 1.008 1.38 1.667 1.85 1.467l6.445-2.789c.203.023 3.304 9.989 3.304 9.989l8.558 12.085a.89.89 0 0 0 .04-.051l-8.693-12.389 8.133-6.154c.4-.767.867-1.511 1.454-2.199.521-.606 1.772-2.589 3.476-5.278-2.615-8.49-7.732-18.991-17.719-27.916zm-38.405 46.217c6.898 3.216 13.556 6.641 17.926 9.039l7.707-9.309.997.575-8.778-13.827c-.153-.065-.3-.143-.451-.216-.986-.474-1.948-1.011-2.84-1.657a16.92 16.92 0 0 1-1.132-.889l-.01-.01c-.085-.179-5.41-11.771-3.016-14.992 1.467-1.951 6.843 5.279 6.843 5.279s-.57-2.53-1.269-4.146c-.697-1.624-1.78-4.356.13-9.863.665-1.91.079-3.962-.955-5.832 3.118 1.649 7.98 2.702 14.76-.121 2.069-.862 3.683-1.962 4.956-3.173.484-.457.927-.933 1.316-1.42 4.232-5.332 3.039-11.97 3.039-11.97-2.002-4.639-7.113 6.81-11.465 5.143-.01-.004-.019-.003-.032-.007a18.264 18.264 0 0 0-12.329-.428c-.57.183-1.139.393-1.701.635-.061.028-.109.065-.169.095-.953.423-1.853.916-2.693 1.474-.298.197-.555.433-.835.646-.463.349-.913.707-1.335 1.091l-.023-.04c-.098.081-.187.169-.284.26-.085.079-.172.153-.254.234-4.75 4.671-6.65 11.707-4.664 18.313-1.992 4.873-4.839 10.11-8.775 13.693-1.701 1.551-5.238 3.188-8.808 5.813 1.163 4.671 2.046 8.487 2.488 10.542 3.706 1.469 7.715 3.232 11.653 5.069zm23.767 40.46-4.892-3.933-4.939-3.972a11.494 11.494 0 0 1-4.27-1.748c-2.469-1.653-24.506-10.868-33.09-18.847-.092-.085-.163-.169-.256-.256-1.183-1.127-2.164-2.239-2.962-3.322-9.94 1.082-22.425 5.329-28.37 26.176-2.496 8.757-2.069 16.923.375 24.024-10.257.419-26.936 1.427-34.102 26.564-8.896 31.196 19.317 54.9 43.688 49.728 8.761-1.86 18.07-3.925 26.619-6.394 7.148 3.415 15.185 4.643 22.848 3.02 8.061-1.71 16.582-3.597 24.55-5.806-17.22-12.551 10.516-37.412 12.123-59.236.419-5.698-.937-11.19-5.348-16.197.012-.135-5.406-4.513-11.977-9.803zm275.281 184.897c-3.181-12.688-14.627-22.097-28.303-22.097-16.015 0-29.001 12.89-29.191 28.858 0 .118-.017.237-.017.355 0 .704.056 1.39.105 2.083 1.072 15.158 13.677 27.126 29.106 27.126 16.133 0 29.211-13.076 29.211-29.208 0-1.605-.163-3.172-.413-4.708a30.307 30.307 0 0 0-.497-2.408zm-96.539-468.548a30.007 30.007 0 0 0-2.304-.85 29.162 29.162 0 0 0-9.123-1.471c-16.133 0-29.211 13.075-29.211 29.208 0 2.44.331 4.8.896 7.062.2.802.426 1.59.689 2.367 3.925 11.5 14.797 19.779 27.626 19.779 16.133 0 29.211-13.075 29.211-29.208 0-12.079-7.331-22.442-17.785-26.888zM782.73 393.096c-4.873-9.342-14.634-15.731-25.899-15.731-16.133 0-29.211 13.076-29.211 29.211 0 1.827.19 3.604.51 5.339.149.802.339 1.586.551 2.363 3.382 12.39 14.688 21.509 28.15 21.509 16.133 0 29.211-13.076 29.211-29.208 0-4.016-.811-7.845-2.279-11.324a29.37 29.37 0 0 0-1.031-2.155z"/>
</svg>
