<svg xmlns="http://www.w3.org/2000/svg" viewBox="4.06 162.31 984.1 789.18">
  <path fill="#9ca3af" d="M141.054 770.294c2.381-2.768 3.693-6.457 3.693-10.379 0-7.589-5.112-15.271-14.882-15.271-4.569 0-8.438 1.692-11.189 4.894-2.381 2.768-3.693 6.457-3.693 10.379 0 7.589 5.112 15.271 14.882 15.271 4.569 0 8.438-1.692 11.189-4.894zm-19.333-10.377c0-2.281.753-4.461 2.064-5.986 1.452-1.69 3.497-2.547 6.08-2.547 6.427 0 8.144 5.364 8.144 8.532 0 2.281-.753 4.461-2.064 5.986-1.452 1.69-3.497 2.547-6.08 2.547-6.427 0-8.144-5.364-8.144-8.532zM428.817 469.36v-6.739h9.377v6.739h-9.377zm-6.738-6.742v6.739h-9.377v-6.739h9.377zm0 16.117v-9.377h6.739v9.377h-6.739zm6.738-16.117h-6.739v-9.373h6.739v9.373zm0 6.742h-6.739v-6.739h6.739v6.739zm469.755 166.316c-2.205 8.49-3.987 17.677-5.503 26.713H394.977c-3.675-19.296-9.786-44.171-19.7-67.953-5.182-12.43-10.5-26.402-15.525-40.23 19.618-2.794 41.518-9.714 70.708-22.839 91.205-41.01 150.276-163.758 255.403-124.955 82.282 30.37 175.904 170.005 212.708 229.263zm-840.454 2.668c1.389.219 2.787.405 4.192.558a26.16 26.16 0 0 0-5.232 1.076c.339-.537.69-1.085 1.04-1.634zm187.246-46.809c8.073 15.677 15.042 43.415 20.475 70.853h-11.086c-4.202-16.548-18.931-28.976-36.792-29.836-.662-.031-1.32-.05-1.988-.05-2.027 0-4.009.167-5.951.454a40.235 40.235 0 0 0-17.556 7.119 26.63 26.63 0 0 0 .779-6.308c0-14.914-12.258-27.005-27.376-27.005-11.157 0-20.732 6.596-24.999 16.043-1.601-18.171-16.311-32.623-34.76-34.101.912-4.02 1.662-8.026 2.128-11.775 29.234-27.303 66.893-48.814 109.66-41.421 4.143.716 8.104 1.435 11.983 2.152 2.702 18.254 7.379 38.144 15.485 53.877zM116.681 434.56v-16.095c0-1.386 1.123-2.508 2.511-2.508s2.514 1.123 2.514 2.508v16.095a2.513 2.513 0 1 1-5.025 0zm0 58.347V476.81a2.513 2.513 0 1 1 5.025 0v16.097c0 1.389-1.125 2.511-2.514 2.511s-2.511-1.123-2.511-2.511zM98.07 458.198H81.973a2.513 2.513 0 1 1 0-5.025H98.07a2.513 2.513 0 0 1 0 5.025zm42.249-5.025h16.097a2.51 2.51 0 0 1 2.511 2.514 2.51 2.51 0 0 1-2.511 2.511h-16.097a2.51 2.51 0 0 1-2.511-2.511 2.511 2.511 0 0 1 2.511-2.514zm-49.221-22.03a2.51 2.51 0 0 1 0-3.552 2.51 2.51 0 0 1 3.554 0l11.381 11.381a2.51 2.51 0 0 1-1.777 4.287 2.501 2.501 0 0 1-1.777-.735l-11.381-11.381zm41.257 41.258a2.512 2.512 0 1 1 3.554-3.554l11.381 11.381a2.512 2.512 0 0 1-1.777 4.289 2.498 2.498 0 0 1-1.777-.735l-11.381-11.381zm-26.322 0-11.381 11.381c-.49.492-1.135.735-1.777.735s-1.288-.243-1.777-.735a2.512 2.512 0 0 1 0-3.554l11.381-11.381a2.512 2.512 0 1 1 3.554 3.554zm26.322-29.874a2.51 2.51 0 0 1 0-3.552l11.381-11.381a2.51 2.51 0 0 1 3.554 0 2.51 2.51 0 0 1 0 3.552l-11.381 11.381c-.49.49-1.135.735-1.777.735s-1.288-.245-1.777-.735zm403.816 256.896v28.784a4.494 4.494 0 0 1-8.986 0v-28.784a4.493 4.493 0 1 1 8.986 0zm0 104.34v28.784a4.494 4.494 0 0 1-8.986 0v-28.784a4.493 4.493 0 1 1 8.986 0zm-42.272-33.283h-28.784a4.492 4.492 0 1 1 0-8.986h28.784a4.494 4.494 0 0 1 0 8.986zm108.832-4.493a4.494 4.494 0 0 1-4.493 4.493h-28.784a4.492 4.492 0 1 1 0-8.986h28.784a4.494 4.494 0 0 1 4.493 4.493zm-94.589-29.888a4.495 4.495 0 0 1-3.177 7.669 4.474 4.474 0 0 1-3.177-1.316l-20.356-20.356c-1.753-1.753-1.753-4.599 0-6.353s4.599-1.753 6.353 0l20.356 20.356zm73.78 73.777a4.495 4.495 0 0 1-3.177 7.669 4.474 4.474 0 0 1-3.177-1.316l-20.356-20.356c-1.753-1.753-1.753-4.599 0-6.353s4.599-1.753 6.353 0l20.356 20.356zm-73.78-20.354a4.495 4.495 0 0 1 0 6.353l-20.356 20.356c-.879.879-2.027 1.316-3.177 1.316s-2.298-.437-3.177-1.316a4.495 4.495 0 0 1 0-6.353l20.356-20.356a4.495 4.495 0 0 1 6.353 0zm47.073-47.07a4.495 4.495 0 0 1 0-6.353l20.356-20.356c1.753-1.753 4.599-1.753 6.353 0s1.753 4.599 0 6.353l-20.356 20.356c-.879.879-2.027 1.316-3.177 1.316s-2.298-.44-3.177-1.316zm345.888-328.554v21.555c0 1.858-1.506 3.363-3.366 3.363s-3.363-1.505-3.363-3.363v-21.555a3.365 3.365 0 1 1 6.729 0zm0 78.135v21.555a3.365 3.365 0 1 1-6.729 0v-21.555a3.365 3.365 0 1 1 6.729 0zm-56.578-28.292a3.366 3.366 0 0 1 3.366-3.366h21.555c1.858 0 3.363 1.506 3.363 3.366s-1.505 3.366-3.363 3.366h-21.555a3.366 3.366 0 0 1-3.366-3.366zm106.422 0a3.365 3.365 0 0 1-3.363 3.366h-21.555a3.366 3.366 0 1 1 0-6.732h21.555a3.363 3.363 0 0 1 3.363 3.366zm-90.835-32.867a3.365 3.365 0 0 1 4.759-4.757l15.241 15.243a3.36 3.36 0 0 1 0 4.757c-.656.659-1.518.986-2.38.986s-1.721-.327-2.38-.986l-15.241-15.243zm75.254 65.738a3.365 3.365 0 1 1-4.761 4.757l-15.243-15.243a3.365 3.365 0 0 1 4.759-4.757l15.245 15.243zm-55.255-15.244a3.36 3.36 0 0 1 0 4.757l-15.241 15.243c-.659.659-1.518.986-2.381.986s-1.721-.327-2.38-.986a3.365 3.365 0 0 1 0-4.757l15.243-15.243a3.367 3.367 0 0 1 4.759 0zm35.25-35.251a3.365 3.365 0 0 1 0-4.757l15.243-15.243c1.313-1.313 3.443-1.313 4.759 0s1.313 3.441 0 4.757l-15.243 15.243a3.35 3.35 0 0 1-2.381.986 3.336 3.336 0 0 1-2.377-.986z"/>
  <path fill="#ffd2bb" d="M537.032 312.498c-11.075 24.667-38.358 58.177-58.257 75.276-11.289 18.086-54.431 20.385-93.639 14.546-4.164.908-8.643 1.588-13.356 2.055-24.478 2.424-55.213-.873-80.02-7.285l3.81-19.399 8.234-41.904c11.566.916 28.171 4.818 39.17 7.668 6.782 1.753 11.435 3.11 11.435 3.11s6.233 2.085 14.618 5.471a269.501 269.501 0 0 1 11.149 4.782l1.069-6.044c0-5.051-.912-9.816-2.492-14.092 6.219.925 13.077 2.334 19.461 3.799 14.735-12.795 32.573-26.34 32.573-26.34s7.688-6.946 16.613-13.685c-3.397-3.65-5.496-8.656-5.496-14.182 0-1.588.19-3.129.518-4.611.193-.876.44-1.725.736-2.551 2.734-7.626 9.68-13.059 17.839-13.059 10.545 0 19.096 9.051 19.096 20.219a21.06 21.06 0 0 1-1.563 8.012 20.248 20.248 0 0 1-4.931 7.153c-3.576 14.395-16.384 34.752-31.049 53.152 1.947.838 3.949 1.731 5.967 2.664 9.667-12.75 49.662-43.113 49.662-43.113s6.44-5.817 14.372-11.966l16.656 3.862a76.86 76.86 0 0 0 7.823 6.463zM284.864 204.746c-.252.08-.513.141-.762.228l.003.027c.254-.09.506-.174.76-.256zm-.762.23c-.449.134-.899.316-1.325.471.323-.124.662-.219.989-.33.113-.059.224-.11.337-.141zm-18.909 112.742v-40.129a36.36 36.36 0 0 1-1.329-2.431s-.629-24.941 6.11-28.823c3.705-2.137 7.339 11.628 7.962 14.115l.103.42.074-.42c.214-1.212.848-5.047.848-7.872 0-3.392.174-9.051 7.746-17.319 3.62-3.952 3.293-10.163 1.981-15.584 4.185 4.082 12.232 10.087 26.957 15.584 5.76 2.149 10.811 3.032 15.179 2.984 0 .04.004.074.004.116v21.231c0 17.686-1.914 32.282-16.809 34.849v23.28H265.19zm53.533-68.505c.2 1.981 1.329 3.488 2.557 3.356 1.208-.131 2.048-1.848 1.858-3.839-.19-1.979-1.328-3.484-2.554-3.352-1.212.131-2.055 1.848-1.859 3.834zm-25.4 0c.2 1.981 1.329 3.488 2.557 3.356 1.208-.131 2.048-1.848 1.858-3.839-.19-1.979-1.328-3.484-2.554-3.352-1.212.131-2.058 1.848-1.859 3.834z"/>
  <path fill="#d1d5db" d="M921.854 947.711H509.666c7.063-32.865 35.814-57.817 70.81-59.502a78.09 78.09 0 0 1 3.79-.097c3.862 0 7.638.318 11.341.869a76.608 76.608 0 0 1 33.466 13.567c-.939-3.858-1.488-7.876-1.488-12.024 0-28.424 23.363-51.471 52.18-51.471 21.264 0 39.515 12.571 47.651 30.572 3.044-34.631 31.081-62.202 66.239-65.019a74.847 74.847 0 0 1 5.944-.254c37.465 0 68.29 28.04 72.106 64.001.075.739.127 1.485.181 2.228.131 1.752.222 3.514.222 5.301 0 8.587-1.615 16.775-4.428 24.396 1.455-.124 2.927-.222 4.428-.222 1.701 0 3.38.084 5.037.25 24.631 2.448 43.942 22.631 44.709 47.404zM217.963 632.553c-.662-.031-1.32-.05-1.988-.05-2.027 0-4.009.167-5.951.454a40.235 40.235 0 0 0-17.556 7.119 26.63 26.63 0 0 0 .779-6.308c0-14.914-12.258-27.005-27.376-27.005-11.157 0-20.732 6.596-24.999 16.043-1.601-18.171-16.311-32.623-34.76-34.101a40.005 40.005 0 0 0-3.111-.146c-2.415 0-4.766.245-7.056.67-16.351 3.032-29.017 16.357-30.771 32.907-.04.386-.043.779-.073 1.168-.07.92-.141 1.843-.141 2.784 0 .617.054 1.225.084 1.835a37.06 37.06 0 0 0 2.238 10.966 26.935 26.935 0 0 0-2.324-.12 26.16 26.16 0 0 0-7.877 1.207c-10.33 3.227-17.878 12.614-18.224 23.796h216.259c-.101-.468-.24-.92-.36-1.382-4.203-16.551-18.934-28.98-36.793-29.84zm-44.583 271.56c-2.831.838-6.004 2.477-9.346 4.644-8.271 5.374-17.535 14.153-24.941 23.046-.659 6.569-1.113 13.066-2.059 19.513h6.308c5.126-5.072 10.537-9.853 15.965-14.664a286.21 286.21 0 0 0 5.334-4.891c7.078-6.61 13.934-13.412 21.916-18.977 2.487-1.744 4.839 2.337 2.365 4.069-8.615 6.004-16.161 13.509-23.843 20.711-1.565 1.454-3.132 2.911-4.71 4.326-3.476 3.12-6.953 6.223-10.333 9.427h23.043c9.276-6.529 17.891-12.59 26.59-22.261 13.494-15.01-4.837-31.295-26.286-24.942zm-33.184-23.303c-.534-20.172-25.037-19.376-36.233 0-8.561 14.826-4.015 53.272-1.415 70.506h9.864c-.51-8.671-.233-17.411.373-26.056 1.029-14.593 2.13-29.502 7.349-43.286 1.06-2.814 5.607-1.595 4.536 1.252-2.144 5.649-3.573 11.502-4.616 17.453a324.774 324.774 0 0 0-2.196 18.953c-.123 1.881-.247 3.749-.358 5.633-.52 8.683-.823 17.396-.343 26.056h13.866c.318-4.385.852-9.84 1.716-16.449 2.664-20.176 7.998-33.889 7.462-54.058zm-80.025 22.521c-21.445-6.35-39.783 9.93-26.293 24.935 9.05 10.063 18.025 16.214 27.721 23.04h24.698c-.88-.889-1.752-1.782-2.639-2.664-2.766-2.107-5.564-4.196-8.207-6.473-9.903-8.528-20.019-16.75-29.13-26.143-2.115-2.181 1.21-5.512 3.329-3.331 9.617 9.912 20.23 19.291 31.137 27.772 4.576 3.55 9.33 6.95 13.569 10.836h1.772c-1.551-6.699-2.791-13.456-3.484-20.296-10.392-12.468-22.636-24.771-32.47-27.68z"/>
  <path fill="#38bdf8" d="M958.346 832.105c-26.242 27.491-67.571 34.478-86.641 36.25-3.815-35.963-34.641-64.001-72.106-64.001-2.003 0-3.98.099-5.944.254-6.548-28.9-8.93-57.701 7.047-59.195 21.638-2.024 30.921 17.682 34.714 31.085-6.397-32.7-21.433-120.522 5.757-101.772 33.269 22.935 23.826 72.571 23.826 72.571s14.193-7.569 21.177-41.303c2.109-10.206 4.042-26.633 6.89-43.605 1.516-9.036 3.297-18.223 5.503-26.713 7.349-28.271 19.444-48.774 42.45-29.897 42.89 35.2 25.176 94.578-3.512 119.685-28.687 25.114 40.828-30.749 49.866 1.459 7.629 27.185-42.111 70.659-62.598 83.038 22.549-2.841 58.63-4.116 33.569 22.141zm-86.46 38.479c.131 1.752.222 3.514.222 5.301 0 8.587-1.615 16.775-4.428 24.396 1.455-.124 2.927-.222 4.428-.222 1.701 0 3.38.084 5.037.25 9.487-1.036 18.844-2.768 27.456-5.501 34.537-10.949-10.933-20.525-32.715-24.222zm-769.468-312.95c-11.354-1.062-16.223 9.278-18.211 16.31 3.354-17.147 11.248-63.232-3.024-53.396-17.455 12.032-12.5 38.074-12.5 38.074s-7.447-3.971-11.109-21.671c-3.66-17.7-6.273-71.046-28.777-52.578-22.504 18.47-13.207 49.622 1.841 62.795 15.052 13.176-21.421-16.133-26.163.766-4.006 14.264 22.092 37.072 32.842 43.568-11.828-1.492-30.756-2.161-17.608 11.616 13.766 14.425 35.457 18.088 45.46 19.018 1.756-16.55 14.421-29.879 30.771-32.907 2.29-.424 4.642-.67 7.056-.67 1.049 0 2.085.066 3.111.146.912-4.02 1.662-8.026 2.128-11.775 1.289-10.387.343-18.717-5.818-19.293zm-37.462 68.454c0-.942.074-1.862.141-2.784-11.418 1.935-35.327 6.965-17.19 12.71 3.241 1.029 6.684 1.782 10.21 2.33 1.389.219 2.787.405 4.192.558.87-.084 1.752-.131 2.645-.131.789 0 1.559.052 2.324.12a37.117 37.117 0 0 1-2.238-10.966c-.031-.612-.084-1.217-.084-1.835zm771.979-267.82c20.397 1.37 38.46 1.17 54.411-.36-7.732-.876-15.113-3.38-21.958-7.223-12.974-7.276-24.013-19.414-31.82-34.699-7.836-15.34-12.425-33.832-12.425-53.757 0-24.867 7.134-47.514 18.828-64.567 10.01-14.598 23.359-25.094 38.454-29.36a55.582 55.582 0 0 1 14.336-2.109c-17.792-2.109-37.742-2.268-59.825 0-11.607 1.191-22.593 5.362-32.347 11.961a73.38 73.38 0 0 0-2.591 1.824 81.318 81.318 0 0 0-11.665 10.528c13.831 17.489 22.459 42.148 22.459 69.482 0 27.075-8.457 51.511-22.045 68.958a86.897 86.897 0 0 1-2.401 2.954c-.061.073-.123.146-.184.222 12.882 15.301 30.012 24.884 48.776 26.15zM538.489 191.06l-79.518 11.073v1.865c-9.064 2.851-16.962 8.241-22.577 15.471-5.559 7.158-8.885 16.116-8.885 26.209 0 13.713 6.123 25.523 15.657 33.43 2.734-7.626 9.68-13.059 17.839-13.059 10.545 0 19.096 9.051 19.096 20.219a21.06 21.06 0 0 1-1.563 8.012l50.678 11.75a74.163 74.163 0 0 1-8.658-9.75c-.04-.052-.074-.109-.113-.16-8.981-12.211-14.306-27.329-14.306-44.078 0-16.789 5.367-31.758 14.4-43.845 4.965-6.647 11.046-12.417 17.952-17.138zm140.502 17.852c2.281-4.801 4.858-9.318 7.723-13.496.222-.321.449-.626.67-.943 9.935-14.099 23.02-24.243 37.782-28.417a55.582 55.582 0 0 1 14.336-2.109c-17.792-2.109-37.742-2.268-59.825 0-11.607 1.191-22.593 5.362-32.347 11.961l-8.571 1.193c2.022.186 4.011.403 5.978.629-8.991 6.635-16.833 15.4-22.984 25.881-2.777 4.731-5.206 9.813-7.252 15.205-4.654 12.28-7.272 26.159-7.272 41.169 0 9.208 1 18.02 2.831 26.329.092.421.177.848.276 1.263 3.519 15.175 9.873 28.595 18.265 39.449-2.364.143-4.762.271-7.219.373l9.251 2.146c12.917 15.492 30.151 25.201 49.046 26.477 20.397 1.37 38.46 1.17 54.411-.36-7.732-.876-15.113-3.38-21.958-7.223-12.974-7.276-24.013-19.414-31.82-34.699a104.757 104.757 0 0 1-3.552-7.718 108.592 108.592 0 0 1-1.803-4.665 115.807 115.807 0 0 1-4.192-14.508c-1.871-8.525-2.879-17.54-2.879-26.866 0-17.682 3.618-34.235 9.904-48.461.381-.883.786-1.752 1.195-2.61zM269.402 929.074l35.17 22.407h-73.775v-9.598c-1.775-26.812-7.536-110.343-10.672-115.045h80.311l-31.034 102.237zm140.721-3.446-.429-94.587H329.85c-3.573 0 40.732 109.014 44.556 118.405v.424h.174c.054.141.094.233.094.233l.513-.233h72.994l-38.058-24.243zM228.71 528.892h121.088l21.987-124.517c-24.478 2.424-55.213-.873-80.02-7.285l3.81-19.399 8.234-41.904c11.566.916 28.171 4.818 39.17 7.668 6.782 1.753 11.435 3.11 11.435 3.11s6.233 2.085 14.618 5.471a269.501 269.501 0 0 1 11.149 4.782l1.069-6.044c0-5.051-.912-9.816-2.492-14.092-4.143-11.192-13.027-18.957-23.355-18.957H222.888c-14.278 0-25.851 14.795-25.851 33.049L228.488 528.9h.222z"/>
  <path fill="#334155" d="M801.997 179.975a253.985 253.985 0 0 0-5.978-.629c-.117-.012-.231-.025-.349-.036-5.549-.515-11.331-.862-17.296-1.066-5.864-4.804-12.281-8.535-19.098-10.974a55.588 55.588 0 0 0-18.938-3.326h-.83c-4.912.074-9.704.8-14.336 2.109-14.762 4.17-27.848 14.318-37.782 28.417-.222.318-.452.621-.67.943-2.864 4.176-5.444 8.697-7.723 13.496-.409.862-.812 1.731-1.201 2.608-6.289 14.228-9.904 30.779-9.904 48.461 0 9.326 1.008 18.341 2.879 26.866a116.146 116.146 0 0 0 4.192 14.508c.57 1.579 1.17 3.135 1.803 4.665a106.142 106.142 0 0 0 3.552 7.718c7.808 15.288 18.847 27.423 31.82 34.699 6.847 3.842 14.225 6.346 21.958 7.223 2.069.247 4.136.36 6.244.36 8.245 0 16.153-1.819 23.545-5.209 9.034-4.108 17.253-10.519 24.274-18.695.061-.073.123-.146.184-.222a89.235 89.235 0 0 0 2.401-2.954c13.59-17.449 22.045-41.884 22.045-68.958 0-27.334-8.628-51.994-22.459-69.482 3.613-3.936 7.518-7.459 11.669-10.526zm-6.16 80.006c0 22.054-7.322 41.826-18.916 55.303-3.792 4.412-8.059 8.105-12.661 11.025-1.911 1.212-3.865 2.333-5.889 3.253-.302.139-.607.259-.911.39-5.4 2.337-11.148 3.601-17.128 3.601-1.618 0-3.201-.084-4.785-.273a43.587 43.587 0 0 1-10.559-2.584c-3.596-1.368-7.036-3.217-10.29-5.471-5.162-3.57-9.848-8.182-13.899-13.63-2.444-3.288-4.654-6.881-6.6-10.728-5.91-11.695-9.37-25.753-9.37-40.887 0-19.159 5.531-36.596 14.582-49.688 6.844-9.9 15.709-17.302 25.727-21.078l.023-.01c4.629-1.741 9.5-2.726 14.535-2.801h.636a42.674 42.674 0 0 1 14.509 2.548c9.024 3.231 17.126 9.42 23.707 17.712 10.642 13.4 17.289 32.323 17.289 53.312zm120.691-90.466a55.588 55.588 0 0 0-18.938-3.326h-.83c-4.912.074-9.704.8-14.336 2.109-15.094 4.266-28.442 14.762-38.454 29.36-11.694 17.053-18.828 39.7-18.828 64.567 0 19.924 4.589 38.417 12.425 53.757 7.808 15.288 18.847 27.423 31.82 34.699 6.847 3.842 14.225 6.346 21.958 7.223 2.069.247 4.136.36 6.244.36 8.245 0 16.153-1.819 23.545-5.209 28.464-12.943 48.906-48.707 48.906-90.829.003-44.344-22.686-81.679-53.509-92.711zm-.897 162.297c-5.664 2.597-11.722 3.99-18.036 3.99-1.618 0-3.201-.084-4.785-.273a43.587 43.587 0 0 1-10.559-2.584c-12.736-4.848-23.586-15.581-30.789-29.826-5.91-11.695-9.37-25.753-9.37-40.887 0-19.159 5.531-36.596 14.582-49.688 6.844-9.9 15.709-17.302 25.727-21.078 4.635-1.747 9.511-2.734 14.555-2.81h.636c5.006 0 9.879.879 14.508 2.547 23.613 8.452 40.995 37.055 40.995 71.026 0 32.267-15.66 59.665-37.462 69.582zM400.009 694.841l-.025 1.768.025.28-.028.02-1.845 134.129h-49.984c-3.016-11.561-5.614-22.513-7.313-31.571-5.868-31.271 1.874-54.077 13.489-70.257l-.007.004s-6.65-12.882-16.664-30.751c-3.394 14.591-6.588 23.575-6.588 23.575l-35.364 104.793h-54.232c1.217-16.85 2.773-32.559 4.748-43.819 4.995-28.447 17.113-44.38 30.676-53.108-1.994-14.802-5.804-41.021-11.053-67.521-5.432-27.44-12.404-55.179-20.475-70.853-8.105-15.733-12.783-35.623-15.483-53.877-.44-2.976-.829-5.904-1.17-8.765h121.088l.337-1.909a1722.708 1722.708 0 0 0 9.614 27.221c5.025 13.831 10.343 27.799 15.525 40.23 9.912 23.782 16.024 48.658 19.7 67.953 3.027 15.897 4.395 27.977 4.846 32.517l.186-.063zM297.741 248.73c.19 1.994-.649 3.707-1.858 3.839-1.226.131-2.356-1.375-2.557-3.356-.197-1.988.647-3.703 1.859-3.834 1.226-.131 2.364 1.372 2.554 3.352zm25.4 0c.19 1.994-.649 3.707-1.858 3.839-1.226.131-2.356-1.375-2.557-3.356-.197-1.988.647-3.703 1.859-3.834 1.226-.131 2.364 1.372 2.554 3.352zm-68.539 11.419c-6.739-22.181-1.123-41.278-1.123-41.278 7.302-16.005 17.974-14.882 29.299-13.426.323-.124.662-.219.989-.33.11-.056.222-.109.337-.141l.003.027c.252-.087.503-.173.758-.254.486-.156.975-.309 1.472-.443a35.209 35.209 0 0 1 1.731-.409c.405-.09.805-.184 1.215-.259.69-.123 1.389-.214 2.093-.296.333-.04.662-.094.998-.124a35.31 35.31 0 0 1 3.17-.149c9.75 0 18.557 3.955 24.958 10.333 1.002 1.002 1.921 2.088 2.798 3.206l1.042.023s3.745-16.473 20.219-9.735c13.124 5.369 9.087 31.118-13.734 31.349-4.369.047-9.42-.833-15.179-2.984-14.725-5.496-22.773-11.501-26.957-15.584 1.312 5.418 1.638 11.632-1.981 15.584-7.571 8.266-7.746 13.928-7.746 17.319 0 2.827-.633 6.659-.848 7.872l-.074.42-.103-.42c-.621-2.487-4.258-16.252-7.962-14.115-6.739 3.883-6.11 28.823-6.11 28.823-2.314-4.698-6.044-4.435-9.26-15.011zm188.561 18.958a20.899 20.899 0 0 0-.736 2.551L389.124 269.3v-1.069c-8.924-2.683-15.532-10.662-15.532-20.687 0-10.013 6.626-17.775 15.532-20.575v-.92l47.272-6.583c-5.559 7.158-8.885 16.116-8.885 26.209-.003 13.713 6.12 25.523 15.654 33.43zm195.596-102.01c2.022.186 4.011.403 5.978.629-8.991 6.635-16.833 15.4-22.984 25.881-2.777 4.731-5.206 9.813-7.252 15.205-4.654 12.28-7.272 26.159-7.272 41.169 0 9.208 1 18.02 2.831 26.329.092.421.177.848.276 1.263 3.519 15.175 9.873 28.595 18.265 39.449-2.364.143-4.762.271-7.219.373-12.967.534-27.192.437-42.796-.379-15.445-.814-29.775-6.04-41.553-14.522a75.386 75.386 0 0 1-7.822-6.47 74.163 74.163 0 0 1-8.658-9.75c-.04-.052-.074-.109-.113-.16-8.981-12.211-14.306-27.329-14.306-44.078 0-16.789 5.367-31.758 14.4-43.845 4.966-6.644 11.049-12.414 17.952-17.135 11.507-7.865 25.307-12.81 40.098-13.996 22.083-1.771 42.033-1.648 59.825 0 .12.012.233.025.349.033z"/>
</svg>
