<svg xmlns="http://www.w3.org/2000/svg" viewBox="3.26 214.71 1024 705.29">
  <path fill="#ffd2bb" d="M360.463 285.763c1.352-.094 2.566-.324 3.45-.694 3.961-1.666.155-5.363-1.818-10.057a11.379 11.379 0 0 0-1.039-1.901c.039-.414.083-.829.133-1.244.699-5.777.165-11.359-1.313-16.433l-.229-.028c-1.548-.187-21.046-1.913-19.157-1.109 2.753 8.616 2.299 17.038-1.479 23.011-.677-2.578-1.927-4.977-3.818-6.797-3.607-3.482-9.907-4.583-13.971-1.125-1.412 1.205-2.144 2.747-2.347 4.379l8.5 11.309s-13.846 9.744-9.968 24.448c2.281 8.649 7.226 15.963 11.534 23.26l5.102-28.113c5.092 2.544 9.968 4.232 13.928 4.712 12.619 1.529 12.32-9.573 12.492-23.617zm-5.989-13.165c-.177 1.756-1.178 3.091-2.266 2.974-1.07-.117-1.816-1.639-1.647-3.4.169-1.756 1.177-3.088 2.264-2.971 1.075.113 1.824 1.636 1.648 3.397zm152.363 187.871s1.719 13.543-10.001 14.462c-8.235.643-15.62-1.855-21.225-5.61-8.21 3.635-20.013 6.396-32.984 8.271-26.71 3.862-58.403 3.945-74.07.016-.02-.003-.038-.01-.058-.016-.273-.069-.53-.141-.793-.211-.233-.064-.476-.124-.701-.189-1.47-.42-2.775-.878-3.876-1.382-1.334-.609-2.58-1.877-3.663-3.568-.87-1.357-1.634-2.982-2.238-4.796-3.297-9.92-1.896-25.077 11.855-28.072.193-.042.426-.074.645-.11 2.479-.395 6.485-.304 11.283.083 5.799.466 12.754 1.369 19.617 2.399 15.372 2.305 30.22 5.23 30.22 5.23s18.559 1.44 34.248 4.392a6.09 6.09 0 0 1 1.341-2.269c2.781-2.958 31.395-9.324 38.957-5.617 4.292 2.112 1.441 16.985 1.441 16.985z"/>
  <path fill="#9ca3af" d="M381.015 439.349c-2.554-5.625-13.784-30.215-25.557-53.72 16.955-8.868 35.648-15.018 55.653-16.057 55.294-2.872 120.48 14.838 162.282 42.437s112.013-92.946 210.613-100.75c137.355-10.875 243.249 166.335 243.249 166.335h-584.63c12.972-1.875 24.775-4.638 32.984-8.271 5.606 3.756 12.989 6.255 21.225 5.61 11.722-.92 10.001-14.462 10.001-14.462s2.85-14.873-1.441-16.986c-7.56-3.704-36.176 2.659-38.957 5.617a6.05 6.05 0 0 0-1.341 2.269c-15.689-2.952-34.248-4.392-34.248-4.392s-14.847-2.924-30.22-5.23c-6.86-1.029-13.818-1.931-19.615-2.399zm-13.309 38.031c-.034.052-.074.086-.13.066-.203-.078-.374-.174-.572-.252-1.47-.42-2.775-.878-3.876-1.382-1.334-.609-2.58-1.877-3.663-3.568-7.551-7.609-9.898-20.827-22.931-41.144 5.432 9.456 1.99 26.875-3.251 36.802-1.519 2.877-2.401 6.15-2.792 9.693h38.007c-.271-.072-.528-.144-.793-.215zm394.371 28.189a4.666 4.666 0 0 0-4.668-4.666h-424.36a144.957 144.957 0 0 0 2.797 9.332h353.223l-.002.01v395.782c0 1.611 2.09 2.913 4.668 2.913s4.666-1.302 4.666-2.913V510.248l-.002-.01h59.009a4.67 4.67 0 0 0 4.668-4.668zm260.365 414.424H8.074c-6.418 0-6.418-9.954 0-9.954h48.375c-14.96-11.313-28-18.412-41.192-33.076-14.799-16.46 5.318-34.316 28.836-27.349 10.783 3.193 24.216 16.684 35.61 30.359.84 8.309 2.397 16.518 4.364 24.643-5.219-5.304-11.437-9.665-17.369-14.274-11.963-9.296-23.602-19.584-34.149-30.456-2.321-2.391-5.97 1.264-3.651 3.651 9.995 10.3 21.092 19.324 31.951 28.675 2.899 2.496 5.968 4.79 9.002 7.099 3.575 3.546 7.109 7.135 10.639 10.728h11.349c-1.768-10.097-10.861-65.852.285-85.14 12.273-21.237 39.157-22.123 39.743 0 .583 22.123-5.261 37.167-8.182 59.29-1.575 11.919-2.126 20.469-2.305 25.848h5.61c2.12-9.617 2.673-19.332 3.671-29.204 11.394-13.674 26.817-27.166 37.601-30.359 8.264-2.446 16.099-1.824 22.157.721V510.246l.002-.01h-66.976a4.667 4.667 0 0 1 0-9.332H260.78a118.641 118.641 0 0 1-2.286 9.332H199.75l.002.01v348.289c2.974 4.483 3.386 10.065 0 15.711v31.78c0 1.611-2.088 2.913-4.666 2.913s-4.668-1.302-4.668-2.913v-21.372c-10.634 10.028-21.397 16.441-33.369 25.388h706.664c-14.96-11.313-28-18.412-41.192-33.076-14.799-16.46 5.318-34.316 28.836-27.349 10.783 3.193 24.216 16.684 35.61 30.359.84 8.309 2.397 16.518 4.364 24.643-5.219-5.304-11.437-9.665-17.369-14.274-11.963-9.296-23.602-19.584-34.149-30.456-2.321-2.391-5.97 1.264-3.651 3.651 9.995 10.3 21.092 19.324 31.951 28.675 2.899 2.496 5.968 4.79 9.002 7.099 3.575 3.546 7.109 7.135 10.64 10.728h11.349c-1.769-10.097-10.861-65.852.285-85.14 12.273-21.237 39.157-22.123 39.743 0 .583 22.123-5.261 37.167-8.182 59.29-1.575 11.919-2.126 20.469-2.305 25.848h5.608c2.12-9.617 2.676-19.332 3.673-29.204 11.394-13.674 26.817-27.166 37.601-30.359 23.518-6.968 43.635 10.891 28.836 27.349-12.856 14.291-25.567 21.392-40.05 32.214h58.133c6.418 0 6.418 9.954 0 9.954zm-912.591-93.805c-5.717 15.125-6.93 31.475-8.055 47.471-.851 12.096-1.111 24.327.233 36.381h5.194c-1.371-12.048-.987-24.239-.265-36.381.124-2.053.255-4.113.402-6.18a345.202 345.202 0 0 1 2.408-20.779c1.141-6.52 2.715-12.944 5.061-19.141 1.18-3.118-3.812-4.455-4.979-1.371zm44.131 65.716c10.296-9.238 19.959-19.531 31.328-27.467 2.709-1.889.132-6.368-2.606-4.459-10.933 7.632-19.94 17.373-29.881 26.174-8.66 7.668-17.325 15.237-24.93 23.885h6.935c6.022-6.39 12.599-12.253 19.153-18.133zm763.131-65.716c-5.717 15.125-6.93 31.475-8.055 47.471-.851 12.096-1.111 24.327.233 36.381h5.194c-1.369-12.048-.985-24.239-.265-36.381.124-2.053.255-4.113.402-6.18a345.202 345.202 0 0 1 2.408-20.779c1.141-6.52 2.715-12.944 5.061-19.141 1.183-3.118-3.812-4.455-4.979-1.371zm44.131 65.716c10.296-9.238 19.959-19.531 31.328-27.467 2.709-1.889.132-6.368-2.606-4.459-10.933 7.632-19.94 17.373-29.881 26.174-8.66 7.668-17.325 15.237-24.93 23.885h6.935c6.024-6.39 12.599-12.253 19.153-18.133zM377.479 625.093a5.592 5.592 0 0 0-5.592-5.592H209.342a5.592 5.592 0 0 0 0 11.186h76.05a12.63 12.63 0 0 0-.37 3.002v249.827c0 1.553.288 2.988.758 4.246h-45.486c-1.911 0-3.461 1.055-3.461 2.359 0 1.3 1.551 2.357 3.461 2.357h100.644c1.911 0 3.461-1.055 3.461-2.357s-1.551-2.359-3.461-2.359h-45.489c.47-1.258.758-2.693.758-4.246V633.688a12.63 12.63 0 0 0-.37-3.002h76.05a5.59 5.59 0 0 0 5.592-5.592z"/>
  <path fill="#334155" d="M445.328 610.41c-11.247 41.236-63.586 162.207-63.586 162.207-4.342 30.198 0-158.522 0-158.522l-113.607-6.687s-46.426-14.931-22.893-64.725h103.705c.02.003 108.221 23.567 95.15 65.838.5.589 1.426 1.172 1.23 1.889zm-94.763-338.238c-.169 1.764.575 3.283 1.647 3.4 1.087.117 2.088-1.219 2.266-2.974.175-1.76-.573-3.283-1.648-3.398-1.089-.117-2.095 1.216-2.264 2.972zm-88.073 207.649c6.912 1.362 14.796.812 21.618-2.228 9.404-4.19 16.794-13.127 16.817-28.41.012-8.229-.686-14.865-1.724-20.403-3.361-17.931-10.318-24.213-8.528-34.651 2.343-13.663 34.032-3.557 43.533-27.174 2.955-7.342 2.958-13.66 1.421-19.509-1.346-5.124-3.875-9.892-6.689-14.661-4.31-7.298-9.252-14.61-11.534-23.26-3.878-14.703 9.968-24.448 9.968-24.448l-8.5-11.309c.203-1.633.934-3.176 2.347-4.379 4.063-3.458 10.363-2.355 13.971 1.125 1.891 1.819 3.141 4.218 3.818 6.797 3.778-5.973 4.232-14.395 1.479-23.011-1.889-.804 17.608.92 19.157 1.109l.229.028.014.002c10.71 1.158 20.389-6.629 21.703-17.508 1.324-10.949-6.349-20.899-17.152-22.202-7.985-.965-14.913 3.585-24.379 2.485-2.162-.26-3.822-.49-5.11-.701-6.592-1.083-3.825-1.71-11.369-2.62-.376-.046-.757-.094-1.12-.124l-.111-.014c-21.685-.765-29.996 9.255-33.086 19.617l-.002-.003-.003.028a38.296 38.296 0 0 0-1.092 4.842c-2.15 7.69-7.979 21.79-21.856 21.79-19.078 0-41.971 0-55.905 18.912s-1.988 53.315-22.273 59.166c-38.198 11.017-88.544 34.275-81.246 75.208 9.635 54.041 45.787 65.491 72.661 52.156s56.421-5.191 69.676 7.148c3.233 3.007 7.967 5.16 13.27 6.205z"/>
  <path fill="#38bdf8" d="M995.937 642.413c0 6.866-4.174 12.442-9.303 12.442H861.676c-3.858 2.216-6.422 6.065-6.422 10.451 0 6.868 6.267 12.442 13.989 12.442h49.989c5.128 0 9.303 5.576 9.303 12.464 0 6.866-4.174 12.442-9.303 12.442h-68.547c7.004 0 12.701 5.576 12.701 12.464 0 6.866-5.697 12.442-12.701 12.442H698.396v-49.81h27.873c5.146 0 9.321-5.575 9.321-12.442 0-4.386-1.706-8.235-4.276-10.451h-.312c-5.128 0-9.303-5.576-9.303-12.442 0-3.444 1.047-6.549 2.722-8.821 1.69-2.25 4.008-3.643 6.581-3.643h1.396c5.146 0 9.321-5.575 9.321-12.442s-4.174-12.442-9.321-12.442l-33.998-.053v-74.77h253.598c7.728 0 13.991 5.575 13.991 12.448s-6.263 12.448-13.991 12.448H778.947c-6.742.893-11.919 6.05-11.919 12.297 0 6.874 6.263 12.448 13.991 12.448h29.146c5.141 0 9.31 5.575 9.31 12.448s-4.171 12.448-9.31 12.448l77.541.288c5.146 0 9.299 5.576 9.299 12.442 0 6.868-4.152 12.442-9.299 12.442h98.928c5.13-.003 9.304 5.572 9.304 12.46zM852.536 752.445H698.402v24.906h154.134c7.004 0 12.701-5.576 12.701-12.442 0-6.89-5.697-12.464-12.701-12.464zM553.8 542.69c0 6.874 6.263 12.448 13.991 12.448h71.636c4.486.893 7.93 6.05 7.93 12.297 0 6.874-4.168 12.448-9.31 12.448h-83.504c-5.141 0-9.309 5.575-9.309 12.448s4.168 12.448 9.309 12.448l134.525.218v-74.754H567.792c-7.728 0-13.993 5.575-13.993 12.448zm103.224 138.703c-1.675 2.272-2.722 5.376-2.722 8.821 0 6.866 4.174 12.442 9.303 12.442H501.71a12.808 12.808 0 0 0-8.984 3.643c-2.286 2.272-3.717 5.376-3.717 8.821 0 6.866 5.697 12.442 12.701 12.442h52.092c5.146 0 9.321 5.576 9.321 12.442 0 6.868-4.174 12.442-9.321 12.442h-50.246a12.808 12.808 0 0 0-8.984 3.643c-2.286 2.272-3.717 5.376-3.717 8.821 0 6.866 5.697 12.442 12.701 12.442h185.512v-26.97c-3.782-2.228-6.283-6.042-6.283-10.377s2.501-8.151 6.283-10.377v-51.877h-25.463c-2.574 0-4.889 1.393-6.581 3.643zM379.751 799.252h45.787s.088.03.075 0c-1.017-.705-20.552-6.872-46.229-23.362l.367 23.362zm-24.293-413.623c-5.305-10.59-10.716-20.955-15.49-29.256a213.412 213.412 0 0 0-4.336-8.928c1.537 5.849 1.533 12.167-1.421 19.509-9.5 23.616-41.188 13.511-43.533 27.174-1.789 10.44 5.166 16.72 8.528 34.651 1.037 5.539 1.738 12.173 1.724 20.403-.024 15.283-7.413 24.219-16.817 28.41-6.824 3.04-14.705 3.59-21.618 2.228-.006 1.796-.008 3.579-.006 5.337.006 5.158-.655 10.493-1.71 15.745a118.641 118.641 0 0 1-2.286 9.332c-5.094 17.757-13.248 32.449-13.248 32.449H348.95c-3.615-8.491-9.028-20.28-13.103-32.449a145.915 145.915 0 0 1-2.797-9.332c-2.156-8.24-3.331-16.308-2.556-23.31.392-3.544 1.276-6.816 2.792-9.693 5.241-9.928 8.684-27.346 3.251-36.802 13.033 20.317 15.38 33.538 22.931 41.144-.87-1.357-1.634-2.982-2.238-4.796-3.297-9.92-1.896-25.077 11.855-28.072.193-.042.426-.074.645-.11 2.479-.395 6.485-.304 11.283.083-2.556-5.624-13.785-30.214-25.557-53.718zm12.12 91.817c.056.022.096-.012.13-.066-.233-.064-.476-.124-.701-.189.199.082.368.177.572.255zm167.714-170.172c25.561 0 46.283-20.722 46.283-46.283s-20.722-46.283-46.283-46.283-46.283 20.722-46.283 46.283 20.722 46.283 46.283 46.283z"/>
</svg>
