<svg xmlns="http://www.w3.org/2000/svg" viewBox="-3.31 122.48 1024 866.07">
  <path fill="#ffd2bb" d="M655.062 148.435c-.119.168-.242.347-.361.518l.512-.739c-.052.073-.1.144-.152.22zm44.844 7.856-19.109 35.811-7.194.086c-2.365 6.932-5.61 12.978-8.943 16.441-7.477 7.766-13.231.31-20.872-8.828-.937.666-1.861 1.162-2.644 1.395-3.495 1.029-2.974-3.44-4.194-7.585a9.042 9.042 0 0 1-.338-1.807c-.248-.248-.495-.5-.754-.743a35.444 35.444 0 0 1-5.851-7.353c2.987-4.14 6.368-8.847 9.848-13.72 3.293 5.873 8.724 11.171 13.487 12.755l-.004-.008.008.002c-.696-1.538-1.133-3.18-1.193-4.842-.021-.554.002-1.107.069-1.661.495-4.223 4.047-8.327 8.578-8.229 3.368.07 5.587 2.783 6.03 5.989a10.758 10.758 0 0 1-.167 4.101c-.145.629-.35 1.237-.601 1.824-.133.315-.318.607-.48.91-.139.263-.258.537-.419.791.138-.073.258-.142.391-.231 1.691-.98 3.254-2.277 4.665-3.868 2.896-3.183 5.148-7.475 6.454-12.452.018-.058.038-.119.041-.171.309-1.174.566-2.392.768-3.641.079-.494.106-1.009.167-1.511.092-.766.208-1.524.252-2.304.069-1.127.104-2.257.079-3.405v-.002c-.002-.058-.011-.129-.011-.19l21.936 2.45zm-56.897 29.268c-1.053-1.061-2.431-1.396-3.081-.741-.645.651-.318 2.055.739 3.118 1.055 1.055 2.429 1.399 3.081.741.644-.653.321-2.055-.739-3.118zm13.959-39.89c-.197.287-.398.581-.601.874.2-.289.408-.592.601-.874zm-542.91 391.955c.16-.012.333-.029.494-.041-.167.012-.327.027-.494.041zm32.091 37.561-3.651 6.201-40.571-1.228 8.781-20.246.077.048c.029.018.058.04.086.054.918.554 1.85 1.046 2.792 1.515.067.034.131.075.2.108h.002c0 .002 0 .002.002.002.462.229.934.402 1.399.61.705.316 1.41.656 2.121.925 1.182.448 2.367.827 3.541 1.142l.05.017c.038.012.073.025.113.035.91.246 1.807.408 2.706.576 4.009.749 7.879.772 11.312.015 2.079-.433 3.984-1.147 5.674-2.125.144-.07.264-.139.396-.225-.064.002-.127-.008-.191-.006-1.223.038-2.437-.092-3.616-.443-.277-.081-.535-.219-.806-.323-.997-.387-1.96-.881-2.83-1.572-2.561-1.98-3.812-5.249-2.2-8.208 2.169-3.982 7.494-5.023 11.408-3.353 2.055.868 3.761 2.385 5.081 4.208v-.004c.002.002.004.004.004.006.994-4.922-.899-12.267-4.361-18.044 5.962-.598 11.726-1.193 16.802-1.723a35.552 35.552 0 0 1 3.471 8.731c.083.344.177.685.269 1.024.495.344.966.735 1.401 1.188 2.989 3.121 7.125 4.89 4.494 7.411-.592.564-1.48 1.116-2.523 1.601 4.133 11.177 7.737 19.877-2.719 22.502-4.663 1.168-11.518.977-18.71-.419zm9.461-29.84c.398 1.447 1.451 2.425 2.338 2.192.895-.24 1.283-1.603.891-3.043-.396-1.447-1.451-2.425-2.338-2.192-.895.24-1.291 1.603-.891 3.043zm-34.824-8.298c.044-.004.087-.006.131-.011l.131-.012-.263.023zm-3.823.334c.28-.025.558-.046.839-.07l-.839.07zm505.67-256.987c-14.746 4.532-32.072 11.177-32.072 11.177s-10.887 3.18-20.479 7.281c-.934.398-1.865.804-2.763 1.217a69.808 69.808 0 0 0-1.613-5.018c-1.844-5.056-4.229-9.611-6.729-11.099-3.462-2.064-15.238 5.718-15.238 5.718s-3.711 1.263-6.468 3.761c-2.263 2.055-3.882 4.943-2.219 8.672 5.621 12.614 22.548 16.677 30.39 13.345 2.781.743 6.012 1.261 9.55 1.596 1.032.098 2.09.183 3.177.249h.002c2.706.165 5.573.22 8.529.197 18.235-.131 40.357-3.599 55.336-8.18a97.203 97.203 0 0 0 4.059-1.327c4.145-1.462 7.535-3.002 9.816-4.565.622-.425 1.136-1.024 1.551-1.749 3.5-8.743-1.847-22.814-13.778-25.094-.087-.017-.177-.029-.266-.044a17.561 17.561 0 0 0-2.327-.26c-1.32-.054-3.241.206-5.552.673v-.002h-.002c-3.575.722-8.102 1.974-12.905 3.451zM303.602 519.331c-10.209 0-18.483 8.277-18.483 18.484 0 2.098.376 4.099 1.023 5.977.035.104.063.211.098.31-6.647 4.483-12.571 8.448-12.571 8.448s-14.382 11.732-25.643 22.271c-3.67 3.431-7.007 6.737-9.411 9.469 0 .002-.002.002-.004.004 0 0 .004.002.002.004-1.553 1.772-2.734 3.312-3.339 4.48-.37.718-.674 1.436-.934 2.159-.029.079-.061.159-.087.237-3.962 11.486 5.587 23.119 14.911 24.438.839 0 1.618-.148 2.298-.477 2.492-1.203 5.51-3.374 8.841-6.247a94.992 94.992 0 0 0 3.173-2.861c11.422-10.718 25.429-28.187 34.612-43.942a134.453 134.453 0 0 0 3.258-5.94 18.35 18.35 0 0 0 2.263.152c5.613 0 10.631-2.511 14.02-6.46 2.777-3.235 4.465-7.428 4.465-12.024-.002-10.211-8.278-18.484-18.487-18.484z"/>
  <path fill="#f9f9fa" d="M647.245 254.985H111.319c-23.556 0-42.719 21.184-42.719 47.223v29.682h922.565v-29.682c0-26.039-19.163-47.223-42.719-47.223H697.023c-14.249 18.385-36.02 45.719-39.576 46.718.004-.011.006-.023.011-.034-.414.726-.928 1.324-1.551 1.749-2.281 1.563-5.673 3.104-9.816 4.565a97.177 97.177 0 0 1-4.059 1.327c-14.98 4.581-37.101 8.05-55.336 8.18-2.956.023-5.822-.035-8.529-.197 0-.002-.002 0-.002 0a99.182 99.182 0 0 1-3.177-.249c-3.538-.335-6.769-.853-9.55-1.596-7.842 3.33-24.767-.731-30.39-13.345-1.663-3.728-.044-6.618 2.219-8.672 2.757-2.498 6.468-3.761 6.468-3.761s11.776-7.783 15.238-5.718c2.5 1.488 4.888 6.043 6.729 11.099a70.113 70.113 0 0 1 1.613 5.018c.899-.414 1.827-.82 2.763-1.217 9.59-4.101 20.479-7.281 20.479-7.281s17.325-6.645 32.072-11.177c4.803-1.476 9.33-2.729 12.897-3.456h.002c-.002 0-.002-.002-.002-.002l11.72-21.951z"/>
  <path fill="#9ca3af" d="M289.453 241.615h-67.99l.24-6.884 25.452.889a83.672 83.672 0 0 1 2.639-11.405l-23.267-10.36 8.312-18.639 23.247 10.365a83.064 83.064 0 0 1 6.734-9.584l-17.703-18.331 14.677-14.18 17.712 18.331a83.632 83.632 0 0 1 9.804-6.393l-9.541-23.608 18.92-7.656 9.541 23.623a84.388 84.388 0 0 1 17.159-2.731l4.076-26.259 20.167 3.141-3.809 24.53c5.858 1.122 11.512 2.838 16.863 5.125l12.729-22.057 17.666 10.212-12.74 22.056a85.174 85.174 0 0 1 8.847 7.688l20.065-15.694 12.575 16.088-20.076 15.677a83.52 83.52 0 0 1 5.333 10.429l24.466-7.011 5.627 19.613-24.484 7.011c.312 1.986.543 3.992.71 6.018h-42.815c-3.208-19.547-20.134-34.459-40.571-34.459-20.444-.002-37.366 14.911-40.569 34.458zM870.28 845.762c0 22.715-18.441 41.156-41.162 41.156-22.732 0-41.162-18.441-41.162-41.156a40.8 40.8 0 0 1 .699-7.425h-68.074l-.495 14.238 25.469.895c.341 3.94.951 7.8 1.818 11.549l-23.938 8.718 6.99 19.184 23.941-8.706a83.585 83.585 0 0 0 6.032 10.025l-18.952 17.042 13.672 15.175 18.952-17.063a83.604 83.604 0 0 0 9.326 7.056l-11.172 22.904 18.348 8.939 11.162-22.895a83.681 83.681 0 0 0 11.312 3.035l-1.78 25.406 20.359 1.422 1.781-25.406a82.298 82.298 0 0 0 11.622-1.422l7.858 24.222 19.409-6.316-7.868-24.216a81.944 81.944 0 0 0 10.234-5.691l16.382 19.525 15.635-13.114-16.391-19.532a83.75 83.75 0 0 0 7.371-9.093l22.501 11.974 9.584-18.025-22.492-11.967a81.538 81.538 0 0 0 3.405-11.18l25.352 2.667 2.13-20.304-25.354-2.667c-.035-2.15-.191-4.269-.393-6.376H869.58c.448 2.407.703 4.882.703 7.422z"/>
  <path fill="#334155" d="m137.019 903.915 12.507 22.851c-17.554 7.151-33.14 12.845-40.63 15.525l.006-2.156-1.789.243 29.904-36.462zm-32.841 40.042 2.939-3.582-25.467 3.463 26.013 44.656s.017.079.029.054c.044-1.015 1.112-21.354 1.208-46.263-2.734.978-4.422 1.567-4.683 1.661a.928.928 0 0 0-.038.011zm2.937-3.582-2.939 3.582.035-.008c.264-.093 1.951-.683 4.683-1.661l.006-2.156-1.786.243zm-86.62-54.041 1.67.693c-.368.629-.731 1.239-1.095 1.859 7.816 1.463 24.149 4.405 42.917 7.084l.722-26.039-44.214 16.403zm-4.34 1.609 4.341-1.609-23.73-9.85-.064 51.677s-.025.077 0 .061c.547-.853 11.73-17.885 24.372-39.335-2.852-.532-4.602-.876-4.879-.928a.904.904 0 0 1-.038-.015zm4.34-1.609-4.341 1.609s.008.004.035.012c.275.052 2.027.396 4.879.928.367-.621.728-1.231 1.095-1.859l-1.67-.691zm636.637-761.482a34.074 34.074 0 0 1 7.347 4.047c-2.159-1.657-4.601-3.11-7.347-4.047zm-17.206 59.965c-.645.651-.318 2.055.739 3.118 1.055 1.055 2.429 1.399 3.081.741.644-.653.318-2.052-.739-3.118-1.052-1.064-2.429-1.399-3.081-.741zm26.319-53.484-.061.115a20.844 20.844 0 0 1-.651 1.186 58.66 58.66 0 0 1-.758 1.269c-.034.054-.075.121-.11.174-.31.506-.651 1.047-1.03 1.638l-.067.106c-.402.627-.837 1.297-1.307 2.011l-.038.056a330.37 330.37 0 0 1-1.524 2.294l-.127.188c-.508.758-1.038 1.54-1.595 2.359-.113.165-.229.338-.344.503-.465.683-.934 1.372-1.428 2.09l-.237.347-.604.874c-.381.552-.76 1.104-1.153 1.67l-.152.22-.368.526-1.642 2.362-.006.008a2106.627 2106.627 0 0 1-13.183 18.648c3.289 5.873 8.718 11.162 13.481 12.75-.687-1.538-1.124-3.179-1.185-4.838-.021-.554 0-1.11.069-1.665.495-4.223 4.044-8.327 8.582-8.231 3.368.075 5.583 2.787 6.029 5.989a10.706 10.706 0 0 1-.165 4.103 11.037 11.037 0 0 1-.604 1.826c-.133.315-.318.607-.48.91-.139.263-.257.535-.416.787.138-.07.26-.144.391-.229 1.688-.983 3.254-2.28 4.665-3.868 2.898-3.18 5.148-7.477 6.454-12.452a.595.595 0 0 0 .041-.171c.309-1.174.566-2.39.768-3.636.079-.494.106-1.009.167-1.511.092-.766.208-1.526.252-2.309.07-1.124.106-2.254.079-3.404 0-.061-.008-.131-.012-.191h.002v-.004c-.144-4.365-2.754-13.908-8.264-20.039a43.134 43.134 0 0 0-3.17-3.179v.002c-.048.171-.15.414-.298.714zm-12.903 51.399.008.002c-.696-1.538-1.133-3.18-1.193-4.842.061 1.659.497 3.301 1.185 4.839zm1.351-33.77a.035.035 0 0 0 .008-.011l.361-.518c-.121.173-.248.353-.368.529zm-1.642 2.362-.006.008.006-.008zm12.535 29.503c.162-.304.347-.595.48-.91-.133.315-.318.607-.48.91zm11.899-19.57c.079-.494.106-1.009.167-1.511-.061.502-.086 1.015-.167 1.511zm.487-7.414c.002.061.011.131.012.19v.002c0-.061-.008-.131-.012-.191zM95.917 527.416c-.552 2.846-.506 5.691-.139 8.387a34.21 34.21 0 0 1 .139-8.387zm62.028 20.12c.895-.24 1.283-1.603.891-3.043-.396-1.447-1.451-2.425-2.338-2.192-.895.24-1.291 1.603-.891 3.043.399 1.447 1.453 2.425 2.338 2.192zm-47.161 12.424c.029.018.056.038.083.05.92.558 1.855 1.049 2.795 1.517.069.034.133.075.202.108.462.231.934.402 1.401.612.705.316 1.41.656 2.121.925 1.18.445 2.365.824 3.535 1.141.017.008.038.012.056.018.038.012.073.025.115.035.91.246 1.804.408 2.702.576 4.007.748 7.877.772 11.307.015 2.081-.436 3.984-1.15 5.677-2.125.139-.07.263-.139.393-.225-.063.002-.125-.008-.188-.006a11.32 11.32 0 0 1-3.613-.442c-.277-.081-.537-.22-.807-.324-1-.385-1.965-.879-2.835-1.573-2.558-1.977-3.809-5.248-2.199-8.208 2.169-3.982 7.494-5.023 11.408-3.353l.004.002c2.052.866 3.761 2.385 5.081 4.205.994-4.919-.902-12.263-4.359-18.038-7.593.76-15.483 1.52-22.606 2.154l-.136.012c-.044.004-.087.006-.131.011l-2.985.263c-.281.025-.56.046-.839.07l-2.411.205c-.16.012-.333.029-.494.041-.335.029-.662.052-.991.079l-.2.017c-.339.027-.676.054-1.008.079-.367.031-.728.056-1.084.086l-.237.018c-7.619.583-13.108.853-14.293.543a42.537 42.537 0 0 0 1.179 4.332c2.584 7.827 9.565 14.836 13.281 17.132l.002.002v-.002l.073.048zm3.077 1.678c-.067-.034-.131-.075-.2-.108.067.034.131.075.2.108zm29.077-12.935c2.055.868 3.761 2.385 5.081 4.208v-.004c-1.32-1.815-3.029-3.336-5.081-4.203zm-32.231 11.207c.025.017.05.034.077.05l-.077-.05zm10.383 4.459c.91.246 1.804.408 2.702.576-.899-.168-1.797-.332-2.706-.576-.04-.011-.075-.023-.113-.035.04.012.075.025.116.035zm-.173-27.332.136-.012h-.004l-.131.012zm-3.532 26.137c-.712-.269-1.413-.607-2.121-.925.705.316 1.41.656 2.121.925zm23.597-.571c-1.223.038-2.437-.092-3.616-.443-.277-.081-.535-.219-.806-.323.271.104.531.243.807.324 1.176.35 2.392.48 3.613.442z"/>
  <path fill="#38bdf8" d="M440.561 516.008v33.831h-29.218v37.673h-40.494v-37.673h-53.228c2.777-3.235 4.465-7.428 4.465-12.024 0-10.209-8.277-18.484-18.484-18.484s-18.483 8.277-18.483 18.484c0 2.098.376 4.099 1.023 5.977l-9.567 6.047-2.346-27.938 84.577-113.795h43.571l-78.426 107.902h48.184v-33.577h39.211v33.577h29.216zm12.304-18.198c0-59.204 32.805-92.778 76.887-92.778 44.341 0 76.892 33.575 76.892 92.778s-32.551 92.777-76.892 92.777c-44.083 0-76.887-33.572-76.887-92.777zm42.031 0c0 40.752 14.353 57.665 34.857 57.665 20.762 0 35.113-16.914 35.113-57.665s-14.353-57.665-35.113-57.665c-20.504 0-34.857 16.914-34.857 57.665zm226.564 89.702h40.494v-37.673h29.216v-33.831h-29.216v-33.577H722.74v33.577h-48.184l78.427-107.902h-43.571l-84.577 113.795v27.938h96.624v37.673zM343.771 699.598h40.775V683.79h-40.775v-19.07h46.171v-16.312h-66.371v87.826h68.001v-16.312h-47.801v-20.325zm63.994-51.187h38.017c23.462 0 38.142 12.171 38.142 31.87 0 13.172-6.651 22.836-18.068 27.727l19.698 28.231h-21.83l-16.938-24.467h-18.695v24.467h-20.325V648.41zm20.326 47.176h16.562c12.423 0 18.695-5.77 18.695-15.308 0-9.66-6.272-15.308-18.695-15.308h-16.562v30.617zm129.989 12.421 19.698 28.231h-21.83l-16.938-24.467h-18.695v24.467H499.99v-87.826h38.017c23.462 0 38.142 12.171 38.142 31.87 0 13.168-6.653 22.831-18.068 27.725zm-2.51-27.73c0-9.66-6.272-15.308-18.693-15.308h-16.562v30.615h16.562c12.421.002 18.693-5.77 18.693-15.307zm127.231 12.044c0 26.224-20.45 45.417-48.055 45.417-27.727 0-48.052-19.322-48.052-45.417s20.325-45.417 48.052-45.417c27.605 0 48.055 19.197 48.055 45.417zm-20.579 0c0-16.686-11.793-28.104-27.476-28.104s-27.476 11.417-27.476 28.104 11.793 28.104 27.476 28.104 27.476-11.417 27.476-28.104zm93.986 15.686 19.698 28.231h-21.832l-16.938-24.467h-18.695v24.467h-20.325v-87.826h38.017c23.462 0 38.14 12.171 38.14 31.87.002 13.168-6.648 22.831-18.065 27.725zm-2.51-27.73c0-9.66-6.274-15.308-18.693-15.308h-16.562v30.615h16.562c12.419.002 18.693-5.77 18.693-15.307zM96.103 538.153c-.183.129-.121.22.142.294 1.185.31 6.674.041 14.293-.543l.237-.018c.356-.027.72-.054 1.084-.086.333-.025.666-.05 1.008-.079.067-.004.133-.011.2-.017.327-.027.66-.052.991-.081.167-.012.327-.027.494-.04.789-.064 1.593-.133 2.411-.205.28-.025.558-.046.839-.07.978-.086 1.971-.171 2.985-.263l.263-.023h.004c7.124-.635 15.013-1.395 22.606-2.154h.002c5.962-.598 11.726-1.193 16.802-1.723 10.483-1.099 18.002-1.925 18.002-1.925 2.373-.46 4.009-2.714 3.659-5.032-.352-2.317-2.555-3.826-4.928-3.367l-15.993-1.665a33.752 33.752 0 0 0-7.766-12.438c-3.984-4.051-8.724-6.896-13.778-8.518-11.582-3.745-24.771-1.087-34.034 8.018a33.514 33.514 0 0 0-8.206 12.954 32.903 32.903 0 0 0-1.505 6.241 34.05 34.05 0 0 0-.142 8.385c.09.789.191 1.57.332 2.355zM619.24 178.389l-6.507 14.703c-1.582 1.83-1.365 4.492.468 5.949 1.838 1.455 4.611 1.156 6.186-.674 0 0 4.457-6.113 10.622-14.663 2.987-4.14 6.368-8.847 9.848-13.72.002 0 .002-.002.004-.004 2.475-3.468 4.988-7.003 7.442-10.477.212-.3.416-.592.629-.889.937-1.33 1.864-2.644 2.772-3.943.376-.537.741-1.06 1.113-1.589.405-.581.827-1.18 1.226-1.751l.006-.008c.454-.65.893-1.28 1.33-1.913l.321-.46.512-.739c.391-.569.772-1.119 1.153-1.67.205-.294.404-.587.601-.874.079-.115.16-.234.24-.347.489-.714.966-1.411 1.428-2.09l.344-.503c.555-.818 1.084-1.605 1.595-2.359.041-.063.086-.127.127-.188.54-.804 1.047-1.57 1.524-2.294l.038-.056c.471-.714.905-1.382 1.307-2.011.021-.034.046-.07.067-.106a90.96 90.96 0 0 0 1.03-1.638l.11-.174c.289-.471.535-.885.758-1.269l.119-.2c.219-.384.391-.703.532-.986l.061-.115c.148-.301.249-.543.295-.71v-.002c.069-.263.021-.362-.185-.266a33.656 33.656 0 0 0-1.876-1.453 34.06 34.06 0 0 0-7.344-4.044 33.205 33.205 0 0 0-6.164-1.797 33.521 33.521 0 0 0-15.319.681c-12.507 3.508-21.368 13.628-23.878 25.542-1.104 5.191-.995 10.718.54 16.189a33.65 33.65 0 0 0 6.923 12.92zm396.403 618.738c-8.897 9.896-17.733 16.341-27.132 22.963-10.189 11.247-24.383 18.247-40.067 18.247H213.21c10.74 19.151 17.921 37.078 13.545 45.587a6.183 6.183 0 0 1-1.761 2.125c-10.983 12.584-45.956 28.683-75.465 40.714v-.002l-12.507-22.852 2.252-2.737s.125-.115.344-.312c-18.799 2.023-49.524-1.171-75.626-4.891v-.002l.722-26.039v-.002l3.327-1.226s29.308-6.328 50.882-9.148c-3.489-7.332-6.7-14.732-9.42-21.268-30.086-1.046-54.266-27.791-54.266-60.541V302.21c0-33.412 25.161-60.594 56.09-60.594h543.057l45.722-85.687s3.634-7.787 18.152-4.367c8.203 1.934 146.627 76.502 146.627 76.502.191.133 6.139 4.028 13.487 13.552h70.076c30.929 0 56.092 27.182 56.092 60.594v466.911c14.101 3.31 21.878 16.024 11.105 28.007zm-24.48-494.918c0-26.039-19.163-47.223-42.719-47.223h-251.42c-14.249 18.385-36.02 45.719-39.576 46.718.004-.011.006-.023.011-.034 2.182-5.452.922-12.977-3.229-18.423-.021-.027-.044-.054-.063-.081a19.3 19.3 0 0 0-1.268-1.486l-.09-.09a18.195 18.195 0 0 0-1.424-1.336c-.034-.027-.067-.05-.1-.077a16.78 16.78 0 0 0-1.576-1.165c-.05-.034-.104-.061-.154-.092a17.092 17.092 0 0 0-1.68-.948c-.119-.056-.243-.1-.364-.154a16.113 16.113 0 0 0-1.638-.664 16.617 16.617 0 0 0-2.196-.576c-.087-.017-.177-.029-.266-.044a17.561 17.561 0 0 0-2.327-.26c-1.32-.054-3.241.206-5.552.673v-.002c-.002 0-.002-.002-.002-.002l11.714-21.951H111.32c-23.556 0-42.719 21.184-42.719 47.223v29.682h922.565v-29.689zM715.37 241.615a122.256 122.256 0 0 1-5.845-3.075c-.086.156-.902 1.263-2.263 3.075h8.108zM178.59 867.616c-5.289-3.604-10.435-7.324-15.148-10.831-.352 9.642-1.249 18.524-2.933 25.654 5.893-5.033 12.267-10.322 18.081-14.824zm749.984-122.024c-5.708 15.094-6.922 31.41-8.039 47.373-.748 10.631-1.03 21.372-.174 32.001h5.202c-.856-10.619-.509-21.326.125-32.001.122-2.049.257-4.105.402-6.166a344.74 344.74 0 0 1 2.402-20.738c1.141-6.506 2.711-12.917 5.052-19.103 1.179-3.112-3.809-4.445-4.969-1.367zm61.509 42.661c-6.32 5.583-12.281 11.574-18.622 17.186-7.154 6.333-14.311 12.602-20.874 19.467 3-.165 5.919-.674 8.724-1.492 4.327-4.18 8.816-8.206 13.306-12.234 4.917-4.411 9.692-9.064 14.576-13.581a50.397 50.397 0 0 0 2.891-9.347zm1.08-442.991H68.598v432.486c0 23.215 15.24 42.557 35.24 46.48-1.766-4.517-2.812-7.304-2.896-7.333-6.299-13.819-10.344-26.303-12.845-37.413-5.431-12.284-5.902-20.252-5.926-20.502 0 0 4.13-157.178 6.532-165.257 4.251-14.296 12.815-13.576 12.815-13.576l137.092 4.148s.004.002.002.004c-1.553 1.772-2.734 3.312-3.339 4.48-.37.718-.674 1.436-.934 2.159-.029.079-.061.159-.087.237a16.974 16.974 0 0 0-.593 2.19 16.726 16.726 0 0 0-.242 1.775c-.011.122-.035.246-.044.37a17.217 17.217 0 0 0-.015 1.94c.002.054 0 .113.002.167.04.658.116 1.312.229 1.957l.017.115a18.816 18.816 0 0 0 1.142 3.868l.038.092c2.656 6.31 8.558 11.145 14.374 11.969l.044.008c-3.94 3.872-79.285 13.81-80.695 13.778-.136 25.924-1.607 140.89-1.607 140.89s21.006 26.632 38.398 54.679h664.119c-12.533-8.997-23.837-16.01-35.254-28.699-14.772-16.428 5.306-34.249 28.779-27.296 10.762 3.185 24.168 16.649 35.54 30.299.839 8.293 2.392 16.484 4.355 24.594-5.208-5.292-11.411-9.646-17.331-14.244-11.938-9.28-23.556-19.547-34.085-30.396-2.315-2.388-5.955 1.26-3.641 3.642 9.975 10.281 21.047 19.288 31.886 28.618 2.896 2.492 5.955 4.78 8.984 7.086 2.131 2.115 4.228 4.266 6.345 6.394h14.882c-2.656-16.53-9.009-63.336 1.003-80.659 12.246-21.2 39.078-22.08 39.664 0s-5.249 37.092-8.166 59.174c-1.203 9.099-1.809 16.232-2.109 21.484h6.255c1.436-8.191 1.965-16.458 2.816-24.838 11.371-13.648 26.762-27.109 37.526-30.3a38.284 38.284 0 0 1 4.296-1.008V345.263zm13.32 434.658a66.708 66.708 0 0 1-.205 3.508c1.015-1.023.899-2.506.205-3.508z"/>
</svg>
