<?xml version="1.0" encoding="UTF-8" standalone="no"?> <svg width="64" height="64" viewBox="0 0 64 64" fill="none" xmlns="http://www.w3.org/2000/svg">
<path d="M13 3C11.9391 3 10.9217 3.42143 10.1716 4.17157C9.42143 4.92172 9 5.93913 9 7V57C9 58.0609 9.42143 59.0783 10.1716 59.8284C10.9217 60.5786 11.9391 61 13 61H21V3H13Z" fill="#84B75B"/>
<path d="M15 14C15 13.2044 14.6839 12.4413 14.1213 11.8787C13.5587 11.3161 12.7956 11 12 11H6C5.20435 11 4.44129 11.3161 3.87868 11.8787C3.31607 12.4413 3 13.2044 3 14C3 14.7956 3.31607 15.5587 3.87868 16.1213C4.44129 16.6839 5.20435 17 6 17H12C12.7956 17 13.5587 16.6839 14.1213 16.1213C14.6839 15.5587 15 14.7956 15 14V14Z" fill="#D3D8DF"/>
<path d="M15 26C15 25.2044 14.6839 24.4413 14.1213 23.8787C13.5587 23.3161 12.7956 23 12 23H6C5.20435 23 4.44129 23.3161 3.87868 23.8787C3.31607 24.4413 3 25.2044 3 26C3 26.7956 3.31607 27.5587 3.87868 28.1213C4.44129 28.6839 5.20435 29 6 29H12C12.7956 29 13.5587 28.6839 14.1213 28.1213C14.6839 27.5587 15 26.7956 15 26Z" fill="#D3D8DF"/>
<path d="M15 39C15 38.2044 14.6839 37.4413 14.1213 36.8787C13.5587 36.3161 12.7956 36 12 36H6C5.20435 36 4.44129 36.3161 3.87868 36.8787C3.31607 37.4413 3 38.2044 3 39C3 39.7956 3.31607 40.5587 3.87868 41.1213C4.44129 41.6839 5.20435 42 6 42H12C12.7956 42 13.5587 41.6839 14.1213 41.1213C14.6839 40.5587 15 39.7956 15 39Z" fill="#D3D8DF"/>
<path d="M15 51C15 50.2044 14.6839 49.4413 14.1213 48.8787C13.5587 48.3161 12.7956 48 12 48H6C5.20435 48 4.44129 48.3161 3.87868 48.8787C3.31607 49.4413 3 50.2044 3 51C3 51.7956 3.31607 52.5587 3.87868 53.1213C4.44129 53.6839 5.20435 54 6 54H12C12.7956 54 13.5587 53.6839 14.1213 53.1213C14.6839 52.5587 15 51.7956 15 51Z" fill="#D3D8DF"/>
<path d="M61 7V57C61 58.0609 60.5786 59.0783 59.8284 59.8284C59.0783 60.5786 58.0609 61 57 61H21V3H57C58.0609 3 59.0783 3.42143 59.8284 4.17157C60.5786 4.92172 61 5.93913 61 7Z" fill="#ED7A98"/>
<path d="M32.636 14.3225L29.8076 17.1509L36.1716 23.5148L39 20.6864L32.636 14.3225Z" fill="#84B75B"/>
<path d="M50.3138 32.0002L47.4854 34.8286L53.8493 41.1926L56.6777 38.3641L50.3138 32.0002Z" fill="#84B75B"/>
<path d="M46.0714 36.2429C45.6999 36.6143 45.259 36.909 44.7737 37.11C44.2883 37.3111 43.7682 37.4145 43.2429 37.4145C42.7176 37.4145 42.1974 37.3111 41.7121 37.11C41.2268 36.909 40.7858 36.6143 40.4144 36.2429L34.7574 30.5859C34.3859 30.2144 34.0913 29.7735 33.8902 29.2882C33.6892 28.8028 33.5857 28.2827 33.5857 27.7574C33.5857 27.2321 33.6892 26.7119 33.8902 26.2266C34.0913 25.7413 34.3859 25.3003 34.7574 24.9289L36.1724 23.5149L29.8084 17.1509C27.5581 19.4013 26.2939 22.4534 26.2939 25.6359C26.2939 28.8183 27.5581 31.8705 29.8084 34.1209L36.8794 41.1919C39.1298 43.4421 42.1819 44.7063 45.3644 44.7063C48.5468 44.7063 51.599 43.4421 53.8494 41.1919L47.4854 34.8279L46.0714 36.2429Z" fill="#BFE89E"/>
</svg>
